<svg id="Layer_1" data-name="Layer 1" xmlns="http://www.w3.org/2000/svg" xmlns:xlink="http://www.w3.org/1999/xlink" viewBox="0 0 1003.57 110"><defs><style>.cls-1,.cls-2,.cls-4{fill:none;}.cls-2{stroke:#3939ff;}.cls-2,.cls-4{stroke-miterlimit:10;stroke-width:2px;}.cls-3{clip-path:url(#clip-path);}.cls-4{stroke:#f3f3ff;}</style><clipPath id="clip-path"><rect class="cls-1" x="0.01" y="55" width="1003.49" height="102"/></clipPath></defs><title>Artboard 1</title><rect class="cls-1" x="-0.03" y="-47" width="1003.57" height="204"/><path class="cls-2" d="M26.37,39.54v8.35H47.49v16H26.37v9.6h24v17H5.05v-68H50.36v17Z"/><path class="cls-2" d="M101.73,90.52,89.25,72.86,78.88,90.52H54.59L77,55.48,53.63,22.55H78.88l12,17,10-17h24.29l-22,34.37L127,90.52Z"/><path class="cls-2" d="M184.38,57.54a21.12,21.12,0,0,1-8.78,8.3,29.71,29.71,0,0,1-14.06,3.07h-8.45v21.6H131.78v-68h29.76q12.48,0,19.15,6.34t6.67,17A23.17,23.17,0,0,1,184.38,57.54ZM165.76,45.88q0-6.24-6.62-6.24h-6V52.12h6Q165.76,52.12,165.76,45.88Z"/><path class="cls-2" d="M215.39,74.39h20.54V90.52H194.07v-68h21.31V74.39Z"/><path class="cls-2" d="M258.16,86.68A33.86,33.86,0,0,1,245.44,74.2a34.58,34.58,0,0,1-4.7-18,34.67,34.67,0,0,1,4.7-18,33.44,33.44,0,0,1,12.72-12.43,36.94,36.94,0,0,1,35.19,0A33.18,33.18,0,0,1,306,38.3a35,35,0,0,1,4.66,18,34.87,34.87,0,0,1-4.66,18A33.44,33.44,0,0,1,293.3,86.68a36.48,36.48,0,0,1-35.14,0Zm27.4-19.44q3.45-4.08,3.46-11t-3.46-11.09q-3.45-4.08-9.79-4.08t-9.89,4.08q-3.45,4.08-3.46,11.09t3.46,11q3.45,4.08,9.89,4.08T285.56,67.24Z"/><path class="cls-2" d="M352.48,90.52,339.71,66.14h-.1V90.52H318.3v-68H350a31.29,31.29,0,0,1,14.11,2.93,20.33,20.33,0,0,1,8.78,8,22.25,22.25,0,0,1,2.93,11.38A20.22,20.22,0,0,1,372,56.93a20.81,20.81,0,0,1-10.9,7.58l14.78,26H352.48ZM339.61,51.93h8.45a6.67,6.67,0,0,0,4.61-1.39,5.63,5.63,0,0,0,1.54-4.37A5.62,5.62,0,0,0,352.63,42a6.32,6.32,0,0,0-4.56-1.54h-8.45V51.93Z"/><path class="cls-2" d="M403.93,39.54v8.35h21.12v16H403.93v9.6h24v17H382.62v-68h45.31v17Z"/><path class="cls-2" d="M505.69,22.55v16.9H487.64V90.52H466.33V39.45H448.47V22.55Z"/><path class="cls-2" d="M574.33,22.55v68H553V64H532.76v26.5H511.45v-68h21.31V47H553V22.55Z"/><path class="cls-2" d="M605.24,39.54v8.35h21.12v16H605.24v9.6h24v17H583.93v-68h45.31v17Z"/><path class="cls-2" d="M674.94,74.39h20.54V90.52H653.62v-68h21.31V74.39Z"/><path class="cls-2" d="M745.79,80.25H723.13l-3.36,10.27H697.4l24.86-68h24.58l24.77,68H749.15Zm-5.19-16-6.14-18.91-6.14,18.91Z"/><path class="cls-2" d="M829.78,22.55v16.9h-18V90.52H790.42V39.45H772.56V22.55Z"/><path class="cls-2" d="M856.86,39.54v8.35H878v16H856.86v9.6h24v17H835.55v-68h45.31v17Z"/><path class="cls-2" d="M895.4,85.48q-7.92-5.72-8.59-16.75h22.66c.32,3.9,2,5.86,5.18,5.86a5.05,5.05,0,0,0,2.93-.82,2.85,2.85,0,0,0,1.2-2.54,4.41,4.41,0,0,0-2.59-3.89,52.23,52.23,0,0,0-8.06-3.41,88.3,88.3,0,0,1-10.8-4.51A20.87,20.87,0,0,1,890,53q-3.07-4.23-3-10.85a18.57,18.57,0,0,1,3.41-11.28,21.1,21.1,0,0,1,9.31-7.06A35.06,35.06,0,0,1,913,21.4q12.48,0,19.82,5.76t7.73,16.22H917.64a5.67,5.67,0,0,0-1.44-4.13A4.65,4.65,0,0,0,912.94,38a2.9,2.9,0,0,0-2.21.91,3.54,3.54,0,0,0-.86,2.54,4.36,4.36,0,0,0,2.54,3.79,58.57,58.57,0,0,0,8.11,3.6,92.51,92.51,0,0,1,10.61,4.61,22.55,22.55,0,0,1,7.25,6.14,15.57,15.57,0,0,1,3.07,9.89,20.15,20.15,0,0,1-12,18.91,32.07,32.07,0,0,1-13.92,2.78Q903.31,91.2,895.4,85.48Z"/><path class="cls-2" d="M1002.3,22.55v16.9h-18V90.52H962.94V39.45H945.08V22.55Z"/><g class="cls-3"><rect class="cls-1" x="0.03" y="-47" width="1003.49" height="204"/><path class="cls-4" d="M26.39,39.54v8.35H47.51v16H26.39v9.6h24v17H5.08v-68H50.39v17Z"/><path class="cls-4" d="M101.75,90.52,89.27,72.86,78.9,90.52H54.61L77,55.48,53.65,22.55H78.9l12,17,10-17h24.29l-22,34.37L127,90.52Z"/><path class="cls-4" d="M184.4,57.54a21.12,21.12,0,0,1-8.78,8.3,29.71,29.71,0,0,1-14.06,3.07h-8.45v21.6H131.8v-68h29.76q12.48,0,19.15,6.34t6.67,17A23.07,23.07,0,0,1,184.4,57.54ZM165.78,45.88q0-6.24-6.62-6.24h-6V52.12h6Q165.77,52.12,165.78,45.88Z"/><path class="cls-4" d="M215.41,74.39H236V90.52H194.1v-68h21.31Z"/><path class="cls-4" d="M258.18,86.68A33.86,33.86,0,0,1,245.46,74.2a34.58,34.58,0,0,1-4.7-18,34.67,34.67,0,0,1,4.7-18,33.44,33.44,0,0,1,12.72-12.43,36.94,36.94,0,0,1,35.19,0A33.18,33.18,0,0,1,306,38.3a35,35,0,0,1,4.66,18,34.87,34.87,0,0,1-4.66,18,33.44,33.44,0,0,1-12.67,12.48,36.48,36.48,0,0,1-35.14,0Zm27.4-19.44q3.45-4.08,3.46-11t-3.46-11.09q-3.45-4.08-9.79-4.08t-9.89,4.08q-3.45,4.08-3.46,11.09t3.46,11q3.45,4.08,9.89,4.08T285.58,67.24Z"/><path class="cls-4" d="M352.5,90.52,339.73,66.14h-.1V90.52H318.32v-68H350a31.29,31.29,0,0,1,14.11,2.93,20.33,20.33,0,0,1,8.78,8,22.25,22.25,0,0,1,2.93,11.38A20.22,20.22,0,0,1,372,56.93a20.81,20.81,0,0,1-10.9,7.58l14.78,26H352.5ZM339.63,51.93h8.45a6.67,6.67,0,0,0,4.61-1.39,5.63,5.63,0,0,0,1.54-4.37A5.62,5.62,0,0,0,352.65,42a6.32,6.32,0,0,0-4.56-1.54h-8.45V51.93Z"/><path class="cls-4" d="M404,39.54v8.35h21.12v16H404v9.6h24v17H382.64v-68H428v17Z"/><path class="cls-4" d="M505.71,22.55v16.9h-18V90.52H466.35V39.45H448.5V22.55Z"/><path class="cls-4" d="M574.35,22.55v68H553V64H532.78v26.5H511.47v-68h21.31V47H553V22.55Z"/><path class="cls-4" d="M605.26,39.54v8.35h21.12v16H605.26v9.6h24v17H584v-68h45.31v17Z"/><path class="cls-4" d="M675,74.39H695.5V90.52H653.64v-68H675V74.39Z"/><path class="cls-4" d="M745.81,80.25H723.15l-3.36,10.27H697.42l24.86-68h24.58l24.77,68H749.17Zm-5.19-16-6.14-18.91-6.14,18.91Z"/><path class="cls-4" d="M829.81,22.55v16.9h-18V90.52H790.45V39.45H772.59V22.55Z"/><path class="cls-4" d="M856.88,39.54v8.35H878v16H856.88v9.6h24v17H835.57v-68h45.31v17Z"/><path class="cls-4" d="M895.42,85.48q-7.92-5.72-8.59-16.75h22.66c.32,3.9,2,5.86,5.18,5.86a5.05,5.05,0,0,0,2.93-.82,2.85,2.85,0,0,0,1.2-2.54,4.41,4.41,0,0,0-2.59-3.89,52.23,52.23,0,0,0-8.06-3.41,88.3,88.3,0,0,1-10.8-4.51A20.87,20.87,0,0,1,890,53q-3.07-4.23-3-10.85a18.57,18.57,0,0,1,3.41-11.28,21.1,21.1,0,0,1,9.31-7.06,35.06,35.06,0,0,1,13.3-2.4q12.48,0,19.82,5.76t7.73,16.22H917.66a5.67,5.67,0,0,0-1.44-4.13A4.65,4.65,0,0,0,913,38a2.9,2.9,0,0,0-2.21.91,3.54,3.54,0,0,0-.86,2.54,4.36,4.36,0,0,0,2.54,3.79,58.57,58.57,0,0,0,8.11,3.6,92.51,92.51,0,0,1,10.61,4.61,22.55,22.55,0,0,1,7.25,6.14,15.57,15.57,0,0,1,3.07,9.89,20.15,20.15,0,0,1-12,18.91,32.07,32.07,0,0,1-13.92,2.78Q903.34,91.2,895.42,85.48Z"/><path class="cls-4" d="M1002.32,22.55v16.9H984.27V90.52H963V39.45H945.1V22.55Z"/></g></svg>