<?xml version="1.0" encoding="utf-8"?>
<!-- Generator: Adobe Illustrator 26.5.0, SVG Export Plug-In . SVG Version: 6.00 Build 0)  -->
<svg version="1.1" id="Layer_1" xmlns="http://www.w3.org/2000/svg" xmlns:xlink="http://www.w3.org/1999/xlink" x="0px" y="0px"
	 viewBox="0 0 1003.57 204" style="enable-background:new 0 0 1003.57 204;" xml:space="preserve">
<style type="text/css">
	.st0{fill:none;}
	.st1{fill:none;stroke:#3939FF;stroke-width:2;stroke-miterlimit:10;}
	.st2{clip-path:url(#SVGID_00000075131924324004754370000012179639152816050332_);}
	.st3{fill:none;stroke:#F3F3FF;stroke-width:2;stroke-miterlimit:10;}
</style>
<g>
	<rect x="-0.03" class="st0" width="1003.57" height="204"/>
	<path class="st1" d="M26.37,86.54v8.35h21.12v16.03H26.37v9.6h24v16.99H5.05V69.55h45.31v16.99H26.37z"/>
	<path class="st1" d="M101.73,137.52l-12.48-17.66l-10.37,17.66H54.59l22.37-35.04L53.63,69.55h25.25l12,16.99l9.98-16.99h24.29
		l-21.98,34.37l23.81,33.6H101.73z"/>
	<path class="st1" d="M184.38,104.54c-1.98,3.49-4.91,6.26-8.78,8.3c-3.87,2.05-8.56,3.07-14.06,3.07h-8.45v21.6h-21.31V69.55h29.76
		c8.32,0,14.7,2.11,19.15,6.34c4.45,4.22,6.67,9.89,6.67,16.99C187.36,97.17,186.36,101.06,184.38,104.54z M165.76,92.88
		c0-4.16-2.21-6.24-6.62-6.24h-6.05v12.48h6.05C163.55,99.12,165.76,97.04,165.76,92.88z"/>
	<path class="st1" d="M215.39,121.39h20.54v16.13h-41.86V69.55h21.31V121.39z"/>
	<path class="st1" d="M258.16,133.68c-5.34-3.01-9.58-7.17-12.72-12.48c-3.14-5.31-4.7-11.29-4.7-17.95s1.57-12.64,4.7-17.95
		c3.14-5.31,7.38-9.46,12.72-12.43c5.34-2.98,11.22-4.46,17.62-4.46c6.4,0,12.25,1.49,17.57,4.46c5.31,2.98,9.52,7.12,12.62,12.43
		c3.1,5.31,4.66,11.3,4.66,17.95s-1.55,12.64-4.66,17.95c-3.1,5.31-7.33,9.47-12.67,12.48c-5.34,3.01-11.18,4.51-17.52,4.51
		C269.37,138.19,263.5,136.69,258.16,133.68z M285.56,114.24c2.3-2.72,3.46-6.38,3.46-10.99c0-4.67-1.15-8.37-3.46-11.09
		c-2.3-2.72-5.57-4.08-9.79-4.08c-4.29,0-7.58,1.36-9.89,4.08c-2.3,2.72-3.46,6.42-3.46,11.09c0,4.61,1.15,8.27,3.46,10.99
		c2.3,2.72,5.6,4.08,9.89,4.08C280,118.32,283.26,116.96,285.56,114.24z"/>
	<path class="st1" d="M352.48,137.52l-12.77-24.38h-0.1v24.38H318.3V69.55h31.68c5.5,0,10.21,0.98,14.11,2.93
		c3.9,1.95,6.83,4.61,8.78,7.97c1.95,3.36,2.93,7.15,2.93,11.38c0,4.54-1.26,8.58-3.79,12.1c-2.53,3.52-6.16,6.05-10.9,7.58
		l14.78,26.02H352.48z M339.61,98.93h8.45c2.05,0,3.58-0.46,4.61-1.39c1.02-0.93,1.54-2.38,1.54-4.37c0-1.79-0.53-3.2-1.58-4.22
		c-1.06-1.02-2.58-1.54-4.56-1.54h-8.45V98.93z"/>
	<path class="st1" d="M403.93,86.54v8.35h21.12v16.03h-21.12v9.6h24v16.99h-45.31V69.55h45.31v16.99H403.93z"/>
	<path class="st1" d="M505.69,69.55v16.9h-18.05v51.07h-21.31V86.45h-17.86v-16.9H505.69z"/>
	<path class="st1" d="M574.33,69.55v67.97h-21.31v-26.5h-20.26v26.5h-21.31V69.55h21.31v24.48h20.26V69.55H574.33z"/>
	<path class="st1" d="M605.24,86.54v8.35h21.12v16.03h-21.12v9.6h24v16.99h-45.31V69.55h45.31v16.99H605.24z"/>
	<path class="st1" d="M674.94,121.39h20.54v16.13h-41.86V69.55h21.31V121.39z"/>
	<path class="st1" d="M745.79,127.25h-22.66l-3.36,10.27H697.4l24.86-67.97h24.58l24.77,67.97h-22.46L745.79,127.25z M740.6,111.22
		l-6.14-18.91l-6.14,18.91H740.6z"/>
	<path class="st1" d="M829.78,69.55v16.9h-18.05v51.07h-21.31V86.45h-17.86v-16.9H829.78z"/>
	<path class="st1" d="M856.86,86.54v8.35h21.12v16.03h-21.12v9.6h24v16.99h-45.31V69.55h45.31v16.99H856.86z"/>
	<path class="st1" d="M895.4,132.48c-5.28-3.81-8.15-9.39-8.59-16.75h22.66c0.32,3.9,2.05,5.86,5.18,5.86
		c1.15,0,2.13-0.27,2.93-0.82c0.8-0.54,1.2-1.39,1.2-2.54c0-1.6-0.86-2.9-2.59-3.89c-1.73-0.99-4.42-2.13-8.06-3.41
		c-4.35-1.54-7.95-3.04-10.8-4.51c-2.85-1.47-5.3-3.62-7.34-6.43c-2.05-2.82-3.04-6.43-2.98-10.85c0-4.42,1.14-8.18,3.41-11.28
		c2.27-3.1,5.38-5.46,9.31-7.06c3.94-1.6,8.37-2.4,13.3-2.4c8.32,0,14.93,1.92,19.82,5.76c4.9,3.84,7.47,9.25,7.73,16.22h-22.94
		c-0.06-1.92-0.54-3.3-1.44-4.13c-0.9-0.83-1.99-1.25-3.26-1.25c-0.9,0-1.63,0.3-2.21,0.91c-0.58,0.61-0.86,1.46-0.86,2.54
		c0,1.54,0.85,2.8,2.54,3.79c1.69,0.99,4.4,2.19,8.11,3.6c4.29,1.6,7.82,3.14,10.61,4.61c2.78,1.47,5.2,3.52,7.25,6.14
		c2.05,2.62,3.07,5.92,3.07,9.89c0,4.16-1.02,7.89-3.07,11.18c-2.05,3.3-5.03,5.87-8.93,7.73c-3.9,1.86-8.54,2.78-13.92,2.78
		C907.38,138.19,900.68,136.29,895.4,132.48z"/>
	<path class="st1" d="M1002.3,69.55v16.9h-18.05v51.07h-21.31V86.45h-17.86v-16.9H1002.3z"/>
</g>
<g>
	<defs>
		<rect id="SVGID_1_" x="0.01" y="102" width="1003.49" height="102"/>
	</defs>
	<clipPath id="SVGID_00000049939249345634184800000003333870161700279454_">
		<use xlink:href="#SVGID_1_"  style="overflow:visible;"/>
	</clipPath>
	<g style="clip-path:url(#SVGID_00000049939249345634184800000003333870161700279454_);">
		<rect x="0.03" y="0" class="st0" width="1003.49" height="204"/>
		<path class="st3" d="M26.39,86.54v8.35h21.12v16.03H26.39v9.6h24v16.99H5.08V69.55h45.31v16.99H26.39z"/>
		<path class="st3" d="M101.75,137.52l-12.48-17.66L78.9,137.52H54.61l22.37-35.04L53.65,69.55H78.9l12,16.99l9.98-16.99h24.29
			l-21.98,34.37l23.81,33.6H101.75z"/>
		<path class="st3" d="M184.4,104.54c-1.98,3.49-4.91,6.26-8.78,8.3c-3.87,2.05-8.56,3.07-14.06,3.07h-8.45v21.6h-21.31V69.55h29.76
			c8.32,0,14.7,2.11,19.15,6.34c4.45,4.22,6.67,9.89,6.67,16.99C187.38,97.17,186.39,101.06,184.4,104.54z M165.78,92.88
			c0-4.16-2.21-6.24-6.62-6.24h-6.05v12.48h6.05C163.57,99.12,165.78,97.04,165.78,92.88z"/>
		<path class="st3" d="M215.41,121.39h20.54v16.13H194.1V69.55h21.31V121.39z"/>
		<path class="st3" d="M258.18,133.68c-5.34-3.01-9.58-7.17-12.72-12.48c-3.14-5.31-4.7-11.29-4.7-17.95s1.57-12.64,4.7-17.95
			c3.14-5.31,7.38-9.46,12.72-12.43c5.34-2.98,11.22-4.46,17.62-4.46c6.4,0,12.25,1.49,17.57,4.46c5.31,2.98,9.52,7.12,12.62,12.43
			c3.1,5.31,4.66,11.3,4.66,17.95s-1.55,12.64-4.66,17.95c-3.1,5.31-7.33,9.47-12.67,12.48c-5.34,3.01-11.18,4.51-17.52,4.51
			C269.39,138.19,263.52,136.69,258.18,133.68z M285.58,114.24c2.3-2.72,3.46-6.38,3.46-10.99c0-4.67-1.15-8.37-3.46-11.09
			c-2.3-2.72-5.57-4.08-9.79-4.08c-4.29,0-7.58,1.36-9.89,4.08c-2.3,2.72-3.46,6.42-3.46,11.09c0,4.61,1.15,8.27,3.46,10.99
			c2.3,2.72,5.6,4.08,9.89,4.08C280.02,118.32,283.28,116.96,285.58,114.24z"/>
		<path class="st3" d="M352.5,137.52l-12.77-24.38h-0.1v24.38h-21.31V69.55H350c5.5,0,10.21,0.98,14.11,2.93
			c3.9,1.95,6.83,4.61,8.78,7.97c1.95,3.36,2.93,7.15,2.93,11.38c0,4.54-1.26,8.58-3.79,12.1c-2.53,3.52-6.16,6.05-10.9,7.58
			l14.78,26.02H352.5z M339.63,98.93h8.45c2.05,0,3.58-0.46,4.61-1.39c1.02-0.93,1.54-2.38,1.54-4.37c0-1.79-0.53-3.2-1.58-4.22
			c-1.06-1.02-2.58-1.54-4.56-1.54h-8.45V98.93z"/>
		<path class="st3" d="M403.95,86.54v8.35h21.12v16.03h-21.12v9.6h24v16.99h-45.31V69.55h45.31v16.99H403.95z"/>
		<path class="st3" d="M505.71,69.55v16.9h-18.05v51.07h-21.31V86.45H448.5v-16.9H505.71z"/>
		<path class="st3" d="M574.35,69.55v67.97h-21.31v-26.5h-20.26v26.5h-21.31V69.55h21.31v24.48h20.26V69.55H574.35z"/>
		<path class="st3" d="M605.26,86.54v8.35h21.12v16.03h-21.12v9.6h24v16.99h-45.31V69.55h45.31v16.99H605.26z"/>
		<path class="st3" d="M674.96,121.39h20.54v16.13h-41.86V69.55h21.31V121.39z"/>
		<path class="st3" d="M745.81,127.25h-22.66l-3.36,10.27h-22.37l24.86-67.97h24.58l24.77,67.97h-22.46L745.81,127.25z
			 M740.62,111.22l-6.14-18.91l-6.14,18.91H740.62z"/>
		<path class="st3" d="M829.81,69.55v16.9h-18.05v51.07h-21.31V86.45h-17.86v-16.9H829.81z"/>
		<path class="st3" d="M856.88,86.54v8.35H878v16.03h-21.12v9.6h24v16.99h-45.31V69.55h45.31v16.99H856.88z"/>
		<path class="st3" d="M895.42,132.48c-5.28-3.81-8.15-9.39-8.59-16.75h22.66c0.32,3.9,2.05,5.86,5.18,5.86
			c1.15,0,2.13-0.27,2.93-0.82c0.8-0.54,1.2-1.39,1.2-2.54c0-1.6-0.86-2.9-2.59-3.89c-1.73-0.99-4.42-2.13-8.06-3.41
			c-4.35-1.54-7.95-3.04-10.8-4.51c-2.85-1.47-5.3-3.62-7.34-6.43c-2.05-2.82-3.04-6.43-2.98-10.85c0-4.42,1.14-8.18,3.41-11.28
			c2.27-3.1,5.38-5.46,9.31-7.06c3.94-1.6,8.37-2.4,13.3-2.4c8.32,0,14.93,1.92,19.82,5.76c4.9,3.84,7.47,9.25,7.73,16.22h-22.94
			c-0.06-1.92-0.54-3.3-1.44-4.13c-0.9-0.83-1.99-1.25-3.26-1.25c-0.9,0-1.63,0.3-2.21,0.91c-0.58,0.61-0.86,1.46-0.86,2.54
			c0,1.54,0.85,2.8,2.54,3.79c1.69,0.99,4.4,2.19,8.11,3.6c4.29,1.6,7.82,3.14,10.61,4.61c2.78,1.47,5.2,3.52,7.25,6.14
			c2.05,2.62,3.07,5.92,3.07,9.89c0,4.16-1.02,7.89-3.07,11.18c-2.05,3.3-5.03,5.87-8.93,7.73c-3.9,1.86-8.54,2.78-13.92,2.78
			C907.41,138.19,900.7,136.29,895.42,132.48z"/>
		<path class="st3" d="M1002.32,69.55v16.9h-18.05v51.07h-21.31V86.45H945.1v-16.9H1002.32z"/>
	</g>
</g>
<g>
</g>
<g>
</g>
<g>
</g>
<g>
</g>
<g>
</g>
<g>
</g>
</svg>
