<svg id="Layer_1" data-name="Layer 1" xmlns="http://www.w3.org/2000/svg" xmlns:xlink="http://www.w3.org/1999/xlink" viewBox="0 0 690 110"><defs><style>.cls-1,.cls-2,.cls-4{fill:none;}.cls-2{stroke:#3939ff;}.cls-2,.cls-4{stroke-miterlimit:10;stroke-width:2px;}.cls-3{clip-path:url(#clip-path);}.cls-4{stroke:#f3f3ff;}</style><clipPath id="clip-path"><rect class="cls-1" x="-156.74" y="55" width="1003.49" height="102"/></clipPath></defs><title>jobshop_24</title><rect class="cls-1" x="-156.78" y="-47" width="1003.57" height="204"/><path class="cls-2" d="M59.4,22.55V66.42Q59.4,78.61,53,84.9t-17.9,6.29q-12.39,0-19.68-6.82T8.14,64.5h21q0,4.13,1.34,5.81A4.43,4.43,0,0,0,34.15,72a3.71,3.71,0,0,0,3-1.25c.7-.83,1.06-2.27,1.06-4.32V22.55Z"/><path class="cls-2" d="M84.12,86.68A33.86,33.86,0,0,1,71.4,74.2a34.58,34.58,0,0,1-4.7-18,34.77,34.77,0,0,1,4.7-18A33.44,33.44,0,0,1,84.12,25.87a36.94,36.94,0,0,1,35.19,0A33.11,33.11,0,0,1,131.93,38.3a35,35,0,0,1,4.66,18,34.87,34.87,0,0,1-4.66,18,33.44,33.44,0,0,1-12.67,12.48,36.48,36.48,0,0,1-35.14,0Zm27.41-19.44q3.47-4.08,3.47-11t-3.47-11.09c-2.3-2.72-5.57-4.08-9.78-4.08s-7.58,1.36-9.89,4.08S88.4,51.58,88.4,56.25s1.14,8.27,3.46,11,5.6,4.08,9.89,4.08S109.23,70,111.53,67.24Z"/><path class="cls-2" d="M199.33,61.58a16.63,16.63,0,0,1,3.41,10.32q0,8.92-5.9,13.78T179.9,90.53H144.28v-68h34.66q10.37,0,16.32,4.51t6,13.15a16,16,0,0,1-3.12,10,14.78,14.78,0,0,1-8.3,5.42A16.33,16.33,0,0,1,199.33,61.58ZM165.59,49.05h8.25a6.58,6.58,0,0,0,4.27-1.15,4.34,4.34,0,0,0,1.4-3.55,4.66,4.66,0,0,0-1.4-3.7,6.42,6.42,0,0,0-4.27-1.2h-8.25Zm14,23.28a4.3,4.3,0,0,0,1.4-3.6c0-3.26-1.9-4.9-5.67-4.9h-9.69v9.6h9.69A6.86,6.86,0,0,0,179.55,72.33Z"/><path class="cls-2" d="M216.42,85.48q-7.92-5.72-8.59-16.75h22.66c.32,3.9,2,5.86,5.18,5.86a5,5,0,0,0,2.92-.82,2.86,2.86,0,0,0,1.21-2.54,4.41,4.41,0,0,0-2.59-3.89,52.67,52.67,0,0,0-8.06-3.41,88.3,88.3,0,0,1-10.8-4.51A20.87,20.87,0,0,1,211,53q-3.07-4.23-3-10.85a18.57,18.57,0,0,1,3.41-11.28,21.1,21.1,0,0,1,9.31-7.06,35.06,35.06,0,0,1,13.3-2.4q12.48,0,19.82,5.76t7.73,16.22h-23a5.71,5.71,0,0,0-1.44-4.13A4.65,4.65,0,0,0,233.93,38a2.87,2.87,0,0,0-2.2.91,3.54,3.54,0,0,0-.86,2.54,4.36,4.36,0,0,0,2.54,3.79,58.57,58.57,0,0,0,8.11,3.6,91.5,91.5,0,0,1,10.6,4.61,22.44,22.44,0,0,1,7.25,6.14,15.57,15.57,0,0,1,3.08,9.89,20.19,20.19,0,0,1-12,18.91,32.11,32.11,0,0,1-13.93,2.78Q224.33,91.2,216.42,85.48Z"/><path class="cls-2" d="M332.81,22.55v68h-21.3V64H291.24v26.5H269.93v-68h21.31V47h20.27V22.55Z"/><path class="cls-2" d="M357.92,86.68A33.86,33.86,0,0,1,345.2,74.2a34.49,34.49,0,0,1-4.71-18,34.58,34.58,0,0,1,4.71-18,33.37,33.37,0,0,1,12.72-12.43,36.94,36.94,0,0,1,35.19,0A33.25,33.25,0,0,1,405.73,38.3a35,35,0,0,1,4.66,18,34.87,34.87,0,0,1-4.66,18,33.47,33.47,0,0,1-12.68,12.48,36.46,36.46,0,0,1-35.13,0Zm27.41-19.44c2.29-2.72,3.45-6.38,3.45-11s-1.14-8.37-3.45-11.09-5.57-4.08-9.8-4.08-7.57,1.36-9.89,4.08-3.46,6.42-3.46,11.09,1.15,8.27,3.46,11,5.6,4.08,9.89,4.08S383,70,385.33,67.24Z"/><path class="cls-2" d="M470.67,57.54a21.09,21.09,0,0,1-8.79,8.3,29.71,29.71,0,0,1-14.06,3.07h-8.45v21.6H418.06v-68h29.76q12.48,0,19.16,6.34t6.66,17A23.17,23.17,0,0,1,470.67,57.54ZM452.05,45.88c0-4.16-2.22-6.24-6.62-6.24h-6.05V52.12h6.05C449.83,52.12,452.05,50,452.05,45.88Z"/><path class="cls-2" d="M511.32,24A19.38,19.38,0,0,1,519,31.62a22.21,22.21,0,0,1,2.74,11.09,22.16,22.16,0,0,1-2.74,11,19.31,19.31,0,0,1-7.68,7.63,24.18,24.18,0,0,1-22.36,0,19.67,19.67,0,0,1-7.72-7.63,21.88,21.88,0,0,1-2.79-11,21.83,21.83,0,0,1,2.79-11.09A19.74,19.74,0,0,1,489,24a24.18,24.18,0,0,1,22.36,0ZM511,53.66a15.1,15.1,0,0,0,4.09-10.94q0-6.81-4.09-11t-10.9-4.18q-6.92,0-11,4.13c-2.71,2.75-4.08,6.43-4.08,11a15,15,0,0,0,4.13,10.94q4.13,4.23,10.94,4.22T511,53.66Zm-2.1-11.38a6.55,6.55,0,0,1-2.54,2.35l4.51,7.87h-8.26l-3.55-7h-.48v7h-7.68V32.34h11.52a7.83,7.83,0,0,1,5.38,1.78,6,6,0,0,1,2,4.75A6.76,6.76,0,0,1,508.93,42.28Zm-10.61-1.39h2.3a1.25,1.25,0,0,0,0-2.5h-2.3Z"/><path class="cls-2" d="M535,22.55h21.12L544.77,50.87h-14Z"/><path class="cls-2" d="M583.94,56.1q7.48-7.83,7.49-14.64a5.52,5.52,0,0,0-1-3.55,3.23,3.23,0,0,0-2.64-1.25,3.36,3.36,0,0,0-3,2q-1.11,2-.82,6H563.3q.29-8.93,3.89-14.69a21.78,21.78,0,0,1,9.36-8.45,29.61,29.61,0,0,1,12.67-2.69q12.28,0,18,5.9t5.71,15.12A30.3,30.3,0,0,1,606.74,58a55.63,55.63,0,0,1-15.5,14.35h22V89.54H563.59v-16A163.32,163.32,0,0,0,583.94,56.1Z"/><path class="cls-2" d="M620.24,80V62.2l28.6-40.8h22.94V61.53h6.91V80h-6.91V90.52h-21.5V80ZM652,45.69,641.63,61.53H652Z"/><g class="cls-3"><rect class="cls-1" x="-156.73" y="-47" width="1003.49" height="204"/><path class="cls-4" d="M59.42,22.55V66.42q0,12.19-6.38,18.48t-17.9,6.29q-12.39,0-19.68-6.82T8.16,64.5h21q0,4.13,1.34,5.81A4.43,4.43,0,0,0,34.17,72a3.71,3.71,0,0,0,3-1.25c.7-.83,1.06-2.27,1.06-4.32V22.55Z"/><path class="cls-4" d="M84.15,86.68A33.88,33.88,0,0,1,71.42,74.2a34.57,34.57,0,0,1-4.69-18,34.76,34.76,0,0,1,4.69-18A33.46,33.46,0,0,1,84.15,25.87a36.92,36.92,0,0,1,35.18,0A33.18,33.18,0,0,1,132,38.3a35,35,0,0,1,4.66,18,34.87,34.87,0,0,1-4.66,18,33.44,33.44,0,0,1-12.67,12.48,36.46,36.46,0,0,1-35.13,0Zm27.41-19.44q3.45-4.08,3.46-11t-3.46-11.09c-2.3-2.72-5.58-4.08-9.79-4.08s-7.58,1.36-9.89,4.08-3.46,6.42-3.46,11.09,1.14,8.27,3.46,11,5.6,4.08,9.89,4.08S109.26,70,111.56,67.24Z"/><path class="cls-4" d="M199.34,61.58a16.58,16.58,0,0,1,3.42,10.32c0,5.95-2,10.54-5.9,13.78s-9.58,4.85-16.94,4.85H144.3v-68H179q10.36,0,16.32,4.51t5.95,13.15a16,16,0,0,1-3.12,10,14.78,14.78,0,0,1-8.3,5.42A16.21,16.21,0,0,1,199.34,61.58ZM165.61,49.05h8.26a6.6,6.6,0,0,0,4.27-1.15,4.37,4.37,0,0,0,1.39-3.55,4.66,4.66,0,0,0-1.39-3.7,6.44,6.44,0,0,0-4.27-1.2h-8.26v9.6Zm14,23.28a4.3,4.3,0,0,0,1.39-3.6c0-3.26-1.89-4.9-5.66-4.9h-9.7v9.6h9.7A6.92,6.92,0,0,0,179.58,72.33Z"/><path class="cls-4" d="M216.43,85.48q-7.92-5.72-8.59-16.75h22.67c.32,3.9,2,5.86,5.17,5.86a5.05,5.05,0,0,0,2.93-.82,2.85,2.85,0,0,0,1.2-2.54,4.4,4.4,0,0,0-2.58-3.89,53.12,53.12,0,0,0-8.06-3.41,87,87,0,0,1-10.8-4.51A20.87,20.87,0,0,1,211,53q-3.08-4.23-3-10.85a18.57,18.57,0,0,1,3.41-11.28,21.1,21.1,0,0,1,9.31-7.06,35,35,0,0,1,13.29-2.4q12.49,0,19.83,5.76t7.73,16.22H238.68a5.67,5.67,0,0,0-1.44-4.13A4.63,4.63,0,0,0,234,38a2.89,2.89,0,0,0-2.21.91,3.54,3.54,0,0,0-.86,2.54,4.36,4.36,0,0,0,2.54,3.79,58.57,58.57,0,0,0,8.11,3.6,92.51,92.51,0,0,1,10.61,4.61,22.55,22.55,0,0,1,7.25,6.14,15.63,15.63,0,0,1,3.07,9.89,20.15,20.15,0,0,1-12,18.91,32.08,32.08,0,0,1-13.93,2.78Q224.35,91.2,216.43,85.48Z"/><path class="cls-4" d="M332.83,22.55v68H311.52V64H291.26v26.5H270v-68h21.31V47h20.26V22.55Z"/><path class="cls-4" d="M357.93,86.68A33.93,33.93,0,0,1,345.21,74.2a34.58,34.58,0,0,1-4.7-18,34.67,34.67,0,0,1,4.7-18,33.37,33.37,0,0,1,12.72-12.43,36.94,36.94,0,0,1,35.19,0A33.18,33.18,0,0,1,405.74,38.3a35,35,0,0,1,4.66,18,34.77,34.77,0,0,1-4.66,18,33.37,33.37,0,0,1-12.67,12.48,36.48,36.48,0,0,1-35.14,0Zm27.41-19.44q3.45-4.08,3.46-11t-3.46-11.09c-2.29-2.72-5.57-4.08-9.79-4.08s-7.57,1.36-9.89,4.08-3.46,6.42-3.46,11.09,1.15,8.27,3.46,11,5.6,4.08,9.89,4.08S383.05,70,385.34,67.24Z"/><path class="cls-4" d="M470.69,57.54a21.09,21.09,0,0,1-8.79,8.3,29.71,29.71,0,0,1-14.06,3.07h-8.45v21.6H418.08v-68h29.76q12.5,0,19.16,6.34t6.67,17A23.07,23.07,0,0,1,470.69,57.54ZM452.07,45.88q0-6.24-6.62-6.24H439.4V52.12h6.05Q452.07,52.12,452.07,45.88Z"/><path class="cls-4" d="M511.34,24A19.38,19.38,0,0,1,519,31.62a22.21,22.21,0,0,1,2.74,11.09,22.05,22.05,0,0,1-2.74,11,19.31,19.31,0,0,1-7.68,7.63,24.16,24.16,0,0,1-22.35,0,19.69,19.69,0,0,1-7.73-7.63,21.87,21.87,0,0,1-2.78-11,21.82,21.82,0,0,1,2.78-11.09A19.77,19.77,0,0,1,489,24a24.16,24.16,0,0,1,22.35,0Zm-.28,29.62a15.13,15.13,0,0,0,4.08-10.94q0-6.81-4.08-11t-10.91-4.18c-4.6,0-8.27,1.38-11,4.13s-4.09,6.43-4.09,11a15,15,0,0,0,4.13,10.94c2.75,2.82,6.41,4.22,10.94,4.22S508.33,56.47,511.06,53.66Zm-2.12-11.38a6.48,6.48,0,0,1-2.54,2.35l4.52,7.87h-8.27l-3.54-7h-.48v7H491V32.34h11.52a7.83,7.83,0,0,1,5.38,1.78,6,6,0,0,1,2,4.75A6.38,6.38,0,0,1,508.94,42.28Zm-10.61-1.39h2.3a1.25,1.25,0,0,0,0-2.5h-2.3Z"/><path class="cls-4" d="M535,22.55h21.12L544.79,50.87h-14Z"/><path class="cls-4" d="M584,56.1q7.49-7.83,7.49-14.64a5.52,5.52,0,0,0-1-3.55,3.23,3.23,0,0,0-2.64-1.25,3.36,3.36,0,0,0-3,2q-1.11,2-.82,6H563.32q.28-8.93,3.89-14.69a21.78,21.78,0,0,1,9.36-8.45,29.61,29.61,0,0,1,12.67-2.69q12.28,0,18,5.9T613,39.82A30.3,30.3,0,0,1,606.76,58a55.63,55.63,0,0,1-15.5,14.35h22V89.54H563.61v-16A162.59,162.59,0,0,0,584,56.1Z"/><path class="cls-4" d="M620.25,80V62.2l28.61-40.8H671.8V61.53h6.91V80H671.8V90.52H650.3V80ZM652,45.69,641.65,61.53H652Z"/></g></svg>