<?xml version="1.0" encoding="utf-8"?>
<!-- Generator: Adobe Illustrator 26.5.0, SVG Export Plug-In . SVG Version: 6.00 Build 0)  -->
<svg version="1.1" id="Layer_1" xmlns="http://www.w3.org/2000/svg" xmlns:xlink="http://www.w3.org/1999/xlink" x="0px" y="0px"
	 viewBox="0 0 357 170" style="enable-background:new 0 0 357 170;" xml:space="preserve">
<style type="text/css">
	.st0{fill-rule:evenodd;clip-rule:evenodd;fill:#FFFFFF;}
	.st1{fill:#FFFFFF;}
</style>
<g id="JS_00000144308130305346418470000002658050540699518643_">
	<g id="JS_00000128445335361364810780000017095174680858588567_">
		<path class="st0" d="M343.48,25.33c7.66-0.67,13.49,4.92,13.52,12.14c0.03,7.29-5.45,12.52-12.39,12.52
			c-7.19,0-12.76-5.45-12.4-13.02c0.26-5.38,3.19-8.7,6.76-10.51C340.32,25.77,341.27,25.53,343.48,25.33 M335.96,33.22
			c-4.34,8.63,5.35,16.99,13.02,13.02c2.47-1.28,4.73-3.93,5.13-7.13c0.88-6.91-4.48-11.82-10.76-11.02
			C339.44,28.58,336.87,31.43,335.96,33.22"/>
		<path class="st0" d="M346.87,38.1c1.41,1.84,3.06,3.44,4.38,5.38c-1.42-0.2-2.59,0.28-3.51,0c-1.8-0.55-2.25-4.53-4.75-4.51
			c-0.3,1.25-0.05,3.05-0.14,4.51h-3V31.09c2.94,0.08,7.78-0.48,9.14,1.5C350.19,34.33,349.2,37.73,346.87,38.1 M342.85,36.72
			c4.15,1.01,4.4-4.5,0-3.38V36.72z"/>
		<path class="st0" d="M96.23,34.09h13.27v20.78c3.48-2.42,6.82-5.47,12.89-5.51c7.23-0.05,11.22,3.84,13.65,9.51
			c2.22,5.19,2.98,13.44,1.38,20.16c-1.39,5.84-4.95,10.92-9.64,13.52c-4.93,2.73-13.36,2.46-18.15-1.13
			c-0.43,0.54-0.35,1.57-0.75,2.13H96.1V34.47C96.09,34.29,96.08,34.12,96.23,34.09 M120.26,83.17c4.32-2.95,5.85-14.99,2.5-20.28
			c-2.61-4.12-10.21-3.56-13.27-0.5v21.28C113.52,84.93,117.62,84.97,120.26,83.17"/>
		<path class="st0" d="M195.25,34.09h13.27V55c0.45,0.2,0.93-0.56,1.5-1c1.51-1.15,3.43-2.52,5.38-3.38
			c5.13-2.27,12.19-1.32,15.65,2c4.15,3.99,4.26,10.48,4.26,18.4v22.53h-13.53v-15.9c0-6.22,0.87-14.66-3-16.53
			c-3.23-1.56-8.29,0.16-10.27,2.13v30.29h-13.4V34.47C195.12,34.29,195.11,34.11,195.25,34.09"/>
		<path class="st0" d="M186.36,39.35c-0.08,4.34,0.17,9.01-0.12,13.15c-1.61,0.07-2.81-1.3-4.13-2.13
			c-4.77-2.98-14.31-6.55-21.03-2.88c-1.68,0.92-3.47,2.78-2.75,5.63c1.04,4.13,9.02,4.64,13.52,5.76
			c4.99,1.25,10.11,3.29,13.02,6.26c3.6,3.69,4.73,10.46,2.88,16.15c-3.3,10.15-14.57,14.23-28.17,13.15
			c-6.34-0.51-11.49-2.04-16.4-4.26c0.08-4.46-0.17-9.26,0.12-13.52c1.83-0.02,3.23,1.45,4.63,2.38c4.89,3.21,14.42,7.23,22.16,4.13
			c2.17-0.86,4.8-3.08,3.63-6.51c-1.46-4.3-10.69-4.96-15.27-6.26c-8.31-2.37-15.81-6.62-14.9-18.53c0.3-3.91,1.86-6.61,3.76-8.76
			c3.61-4.12,9.95-7.07,17.4-7.51C173.46,35.08,180.19,37.01,186.36,39.35"/>
		<path class="st0" d="M10.34,36.6h27.17v21.03c0,10.39,1.5,23.64-3,29.67c-5.54,7.43-18.35,8.51-30.8,6.01V81.79
			c1.99-0.19,3.33,0.88,5.26,1.38c4.63,1.2,10.55,0.5,12.64-2.5c2.36-3.38,1.63-10.33,1.63-16.03V47.11
			c-4.09-0.29-8.72-0.04-13.02-0.13V36.97C10.21,36.8,10.2,36.62,10.34,36.6"/>
		<path class="st0" d="M64.8,49.37c11.27-0.78,18.4,3.97,21.78,10.77c4.77,9.59,2.35,22.64-3.25,28.54
			c-6.05,6.38-18.86,8.47-28.04,3.75C47.62,88.5,43,79.12,45.02,66.64c0.87-5.38,2.99-9.19,6.26-12.14
			C54.69,51.42,59.1,49.76,64.8,49.37 M62.8,59.76c-5.54,3.13-6.09,19.58-1,23.91c2.78,2.37,8.04,1.96,10.39-0.25
			c2.2-2.07,3.13-6.63,3.13-11.14c0-7.33-1.94-14.12-9.51-13.27C64.36,59.17,63.62,59.29,62.8,59.76"/>
		<path class="st0" d="M262.23,49.37c14.54-1.01,23.59,7,24.16,20.78c0.64,15.18-6.48,23.71-20.28,24.66
			c-14.64,1.01-23.21-7.05-24.03-20.66c-0.44-7.22,1.34-13.5,4.63-17.65C250.03,52.3,255.45,49.84,262.23,49.37 M260.22,59.76
			c-5.74,3.23-6.22,20.7-0.37,24.41c2.88,1.82,7.15,1.28,9.26-0.38c2.88-2.24,3.58-7.52,3.51-12.64
			c-0.11-7.11-2.27-12.94-9.39-12.14C261.77,59.17,261.01,59.32,260.22,59.76"/>
		<path class="st0" d="M306.93,91.56v17.78H293.4V50.62h13.52v4.13c3.44-2.4,6.58-4.94,12.26-5.38
			c13.85-1.08,18.68,15.79,15.65,29.42c-1.32,5.97-4.95,11.04-9.64,13.64C320.24,95.19,312.4,95.11,306.93,91.56 M318.56,82.42
			c3.82-3.59,4.47-15.41,1.25-19.91c-1.22-1.72-3.76-2.85-6.76-2.63c-1.78,0.13-5.65,1.13-6.13,2.5c-0.44,1.23,0,3.56,0,5.26v16.02
			C311.48,85.17,316.01,84.82,318.56,82.42"/>
	</g>
	<g>
		<path class="st1" d="M2,139.29v-19.77h12.36v2.34H4.63v5.42h9.07v2.34H4.63v7.34h9.73v2.34H2z"/>
		<path class="st1" d="M28.72,124.46l-5.59,14.83h-2.24l-5.55-14.83h2.7l4.06,11.44l4.02-11.44H28.72z"/>
		<path class="st1" d="M37.04,139.64c-2.36,0-4.2-0.67-5.5-2c-1.31-1.33-1.96-3.22-1.96-5.68c0-2.42,0.63-4.34,1.9-5.77
			c1.27-1.43,2.92-2.14,4.97-2.14c0.92,0,1.73,0.13,2.44,0.4s1.33,0.68,1.86,1.25c0.53,0.57,0.94,1.26,1.22,2.08
			c0.28,0.82,0.42,1.82,0.42,3.01v1.35H32.11c0,1.73,0.43,3.04,1.3,3.96c0.87,0.91,2.07,1.37,3.6,1.37c0.55,0,1.09-0.06,1.61-0.19
			c0.53-0.12,1-0.28,1.43-0.48c0.45-0.2,0.83-0.4,1.14-0.59c0.31-0.19,0.57-0.37,0.77-0.54h0.15v2.72
			c-0.29,0.12-0.66,0.26-1.09,0.43c-0.43,0.17-0.82,0.31-1.17,0.4c-0.49,0.13-0.93,0.23-1.32,0.31
			C38.14,139.6,37.64,139.64,37.04,139.64z M39.96,130.23c-0.02-0.67-0.1-1.25-0.24-1.74s-0.35-0.9-0.61-1.23
			c-0.29-0.37-0.67-0.65-1.12-0.85c-0.46-0.19-1.02-0.29-1.69-0.29c-0.66,0-1.23,0.1-1.69,0.3c-0.46,0.2-0.89,0.49-1.27,0.87
			c-0.37,0.39-0.66,0.82-0.85,1.29c-0.19,0.47-0.32,1.02-0.37,1.65H39.96z"/>
		<path class="st1" d="M56.57,139.29h-2.5v-8.44c0-0.68-0.03-1.32-0.1-1.9s-0.19-1.06-0.38-1.41c-0.2-0.37-0.49-0.65-0.85-0.83
			c-0.36-0.18-0.86-0.27-1.49-0.27c-0.62,0-1.26,0.17-1.92,0.5c-0.66,0.33-1.3,0.76-1.93,1.29v11.07h-2.5v-14.83h2.5v1.65
			c0.74-0.66,1.48-1.17,2.2-1.53c0.73-0.35,1.49-0.53,2.3-0.53c1.46,0,2.6,0.48,3.43,1.44c0.82,0.96,1.23,2.35,1.23,4.18V139.29z"/>
		<path class="st1" d="M62.8,121.98h-2.84v-2.59h2.84V121.98z M62.62,139.29h-2.5v-14.83h2.5V139.29z"/>
		<path class="st1" d="M83.12,139.29v-8.58c0-0.68-0.03-1.31-0.08-1.89s-0.16-1.03-0.33-1.36c-0.18-0.35-0.43-0.61-0.76-0.78
			c-0.33-0.17-0.77-0.25-1.33-0.25c-0.51,0-1.06,0.16-1.65,0.47c-0.59,0.31-1.2,0.77-1.83,1.36c0.01,0.15,0.02,0.33,0.03,0.54
			s0.02,0.45,0.02,0.74v9.76h-2.5v-8.58c0-0.68-0.03-1.31-0.08-1.89s-0.16-1.03-0.33-1.36c-0.18-0.35-0.43-0.61-0.76-0.78
			c-0.33-0.17-0.77-0.25-1.33-0.25c-0.54,0-1.11,0.17-1.7,0.5c-0.59,0.34-1.17,0.77-1.73,1.29v11.07h-2.5v-14.83h2.5v1.65
			c0.66-0.65,1.3-1.16,1.95-1.52c0.64-0.36,1.35-0.54,2.12-0.54c0.88,0,1.65,0.2,2.33,0.6s1.19,1.05,1.55,1.96
			c0.75-0.84,1.49-1.48,2.2-1.91s1.5-0.65,2.34-0.65c0.64,0,1.22,0.1,1.74,0.3c0.52,0.2,0.98,0.52,1.37,0.96
			c0.4,0.45,0.71,1.01,0.92,1.69c0.22,0.67,0.33,1.52,0.33,2.54v9.76H83.12z"/>
		<path class="st1" d="M95.56,139.64c-2.36,0-4.2-0.67-5.5-2c-1.31-1.33-1.96-3.22-1.96-5.68c0-2.42,0.63-4.34,1.9-5.77
			c1.27-1.43,2.92-2.14,4.97-2.14c0.92,0,1.73,0.13,2.44,0.4s1.33,0.68,1.86,1.25c0.53,0.57,0.94,1.26,1.22,2.08
			c0.28,0.82,0.42,1.82,0.42,3.01v1.35H90.64c0,1.73,0.43,3.04,1.3,3.96c0.87,0.91,2.07,1.37,3.6,1.37c0.55,0,1.09-0.06,1.61-0.19
			c0.53-0.12,1-0.28,1.43-0.48c0.45-0.2,0.83-0.4,1.14-0.59c0.31-0.19,0.57-0.37,0.77-0.54h0.15v2.72
			c-0.29,0.12-0.66,0.26-1.09,0.43c-0.43,0.17-0.82,0.31-1.17,0.4c-0.49,0.13-0.93,0.23-1.32,0.31
			C96.66,139.6,96.16,139.64,95.56,139.64z M98.48,130.23c-0.02-0.67-0.1-1.25-0.24-1.74s-0.35-0.9-0.61-1.23
			c-0.29-0.37-0.67-0.65-1.12-0.85c-0.46-0.19-1.02-0.29-1.69-0.29c-0.66,0-1.23,0.1-1.69,0.3c-0.46,0.2-0.89,0.49-1.27,0.87
			c-0.37,0.39-0.66,0.82-0.85,1.29c-0.19,0.47-0.32,1.02-0.37,1.65H98.48z"/>
		<path class="st1" d="M115.09,139.29h-2.5v-8.44c0-0.68-0.03-1.32-0.1-1.9s-0.19-1.06-0.38-1.41c-0.2-0.37-0.49-0.65-0.85-0.83
			c-0.36-0.18-0.86-0.27-1.49-0.27c-0.62,0-1.26,0.17-1.92,0.5c-0.66,0.33-1.3,0.76-1.93,1.29v11.07h-2.5v-14.83h2.5v1.65
			c0.74-0.66,1.48-1.17,2.2-1.53c0.73-0.35,1.49-0.53,2.3-0.53c1.46,0,2.6,0.48,3.43,1.44c0.82,0.96,1.23,2.35,1.23,4.18V139.29z"/>
		<path class="st1" d="M123.08,139.59c-1.36,0-2.43-0.39-3.19-1.16s-1.14-2-1.14-3.67v-8.22h-1.69v-2.07h1.69v-4.26h2.5v4.26h4.59
			v2.07h-4.59v7.05c0,0.75,0.01,1.33,0.04,1.74c0.03,0.41,0.13,0.79,0.31,1.14c0.15,0.31,0.39,0.54,0.73,0.7s0.79,0.23,1.37,0.23
			c0.41,0,0.8-0.06,1.18-0.18c0.38-0.12,0.66-0.22,0.82-0.3h0.15v2.24c-0.47,0.13-0.94,0.24-1.43,0.31S123.49,139.59,123.08,139.59z
			"/>
		<path class="st1" d="M147.84,139.29h-2.5v-8.44c0-0.68-0.03-1.32-0.1-1.9s-0.19-1.06-0.38-1.41c-0.2-0.37-0.49-0.65-0.85-0.83
			c-0.36-0.18-0.86-0.27-1.49-0.27c-0.62,0-1.26,0.17-1.92,0.5c-0.66,0.33-1.3,0.76-1.93,1.29v11.07h-2.5v-14.83h2.5v1.65
			c0.74-0.66,1.48-1.17,2.2-1.53c0.73-0.35,1.49-0.53,2.3-0.53c1.46,0,2.6,0.48,3.43,1.44c0.82,0.96,1.23,2.35,1.23,4.18V139.29z"/>
		<path class="st1" d="M159.63,137.71c-0.2,0.15-0.48,0.36-0.82,0.63c-0.34,0.27-0.67,0.48-0.99,0.64
			c-0.44,0.23-0.87,0.41-1.28,0.53c-0.41,0.12-0.99,0.19-1.73,0.19c-0.61,0-1.19-0.12-1.74-0.35s-1.03-0.55-1.45-0.97
			c-0.4-0.41-0.72-0.91-0.96-1.51c-0.24-0.6-0.36-1.23-0.36-1.89c0-1.03,0.22-1.9,0.65-2.62s1.12-1.29,2.06-1.72
			c0.83-0.38,1.81-0.64,2.95-0.79c1.13-0.15,2.35-0.25,3.66-0.33v-0.48c0-0.58-0.09-1.06-0.27-1.41s-0.42-0.63-0.74-0.83
			c-0.32-0.2-0.71-0.34-1.17-0.4c-0.46-0.07-0.93-0.1-1.42-0.1c-0.58,0-1.25,0.09-2.03,0.26c-0.78,0.17-1.56,0.42-2.34,0.75h-0.15
			v-2.54c0.46-0.13,1.12-0.28,1.98-0.44c0.86-0.16,1.71-0.24,2.55-0.24c1.02,0,1.88,0.08,2.58,0.24c0.7,0.16,1.33,0.45,1.89,0.86
			c0.54,0.41,0.94,0.93,1.21,1.58c0.27,0.65,0.4,1.43,0.4,2.36v10.14h-2.48V137.71z M159.63,135.64v-4.12
			c-0.59,0.05-1.34,0.13-2.25,0.22c-0.91,0.09-1.64,0.22-2.2,0.39c-0.66,0.2-1.21,0.52-1.65,0.94s-0.65,1.01-0.65,1.76
			c0,0.85,0.24,1.49,0.72,1.93s1.18,0.65,2.1,0.65c0.79,0,1.5-0.17,2.14-0.51C158.48,136.56,159.07,136.14,159.63,135.64z"/>
		<path class="st1" d="M170.11,139.59c-1.36,0-2.43-0.39-3.19-1.16s-1.14-2-1.14-3.67v-8.22h-1.69v-2.07h1.69v-4.26h2.5v4.26h4.59
			v2.07h-4.59v7.05c0,0.75,0.01,1.33,0.04,1.74c0.03,0.41,0.13,0.79,0.31,1.14c0.15,0.31,0.39,0.54,0.73,0.7s0.79,0.23,1.37,0.23
			c0.41,0,0.8-0.06,1.18-0.18c0.38-0.12,0.66-0.22,0.82-0.3h0.15v2.24c-0.47,0.13-0.94,0.24-1.43,0.31S170.51,139.59,170.11,139.59z
			 M165.66,144.91l1.82-3.57h3.21l-3.2,3.57H165.66z"/>
		<path class="st1" d="M177.44,121.98h-2.84v-2.59h2.84V121.98z M177.26,139.29h-2.5v-14.83h2.5V139.29z"/>
		<path class="st1" d="M193.13,131.89c0,2.5-0.6,4.42-1.81,5.78c-1.2,1.36-2.81,2.04-4.81,2.04c-2.06,0-3.68-0.7-4.87-2.1
			c-1.18-1.4-1.77-3.31-1.77-5.72c0-2.48,0.61-4.4,1.83-5.77s2.82-2.06,4.81-2.06c2,0,3.6,0.68,4.81,2.05
			C192.53,127.47,193.13,129.4,193.13,131.89z M190.55,131.89c0-1.92-0.35-3.35-1.05-4.28c-0.7-0.93-1.69-1.4-2.99-1.4
			c-1.3,0-2.3,0.47-3.01,1.4c-0.7,0.93-1.06,2.36-1.06,4.28c0,1.86,0.35,3.27,1.06,4.23c0.7,0.96,1.71,1.44,3.01,1.44
			c1.28,0,2.28-0.47,2.98-1.41C190.2,135.2,190.55,133.78,190.55,131.89z"/>
		<path class="st1" d="M207.35,139.29h-2.5v-8.44c0-0.68-0.03-1.32-0.1-1.9s-0.19-1.06-0.38-1.41c-0.2-0.37-0.49-0.65-0.85-0.83
			c-0.36-0.18-0.86-0.27-1.49-0.27c-0.62,0-1.26,0.17-1.92,0.5c-0.66,0.33-1.3,0.76-1.93,1.29v11.07h-2.5v-14.83h2.5v1.65
			c0.74-0.66,1.48-1.17,2.2-1.53c0.73-0.35,1.49-0.53,2.3-0.53c1.46,0,2.6,0.48,3.43,1.44c0.82,0.96,1.23,2.35,1.23,4.18V139.29z"/>
		<path class="st1" d="M219.14,137.71c-0.2,0.15-0.48,0.36-0.82,0.63c-0.34,0.27-0.67,0.48-0.99,0.64
			c-0.44,0.23-0.87,0.41-1.28,0.53c-0.41,0.12-0.99,0.19-1.73,0.19c-0.61,0-1.19-0.12-1.74-0.35s-1.03-0.55-1.45-0.97
			c-0.4-0.41-0.72-0.91-0.96-1.51c-0.24-0.6-0.36-1.23-0.36-1.89c0-1.03,0.22-1.9,0.65-2.62s1.12-1.29,2.06-1.72
			c0.83-0.38,1.81-0.64,2.95-0.79c1.13-0.15,2.35-0.25,3.66-0.33v-0.48c0-0.58-0.09-1.06-0.27-1.41s-0.42-0.63-0.74-0.83
			c-0.32-0.2-0.71-0.34-1.17-0.4c-0.46-0.07-0.93-0.1-1.42-0.1c-0.58,0-1.25,0.09-2.03,0.26c-0.78,0.17-1.56,0.42-2.34,0.75h-0.15
			v-2.54c0.46-0.13,1.12-0.28,1.98-0.44c0.86-0.16,1.71-0.24,2.55-0.24c1.02,0,1.88,0.08,2.58,0.24c0.7,0.16,1.33,0.45,1.89,0.86
			c0.54,0.41,0.94,0.93,1.21,1.58c0.27,0.65,0.4,1.43,0.4,2.36v10.14h-2.48V137.71z M219.14,135.64v-4.12
			c-0.59,0.05-1.34,0.13-2.25,0.22c-0.91,0.09-1.64,0.22-2.2,0.39c-0.66,0.2-1.21,0.52-1.65,0.94s-0.65,1.01-0.65,1.76
			c0,0.85,0.24,1.49,0.72,1.93s1.18,0.65,2.1,0.65c0.79,0,1.5-0.17,2.14-0.51C217.98,136.56,218.58,136.14,219.14,135.64z"/>
		<path class="st1" d="M227.67,139.29h-2.5v-20.66h2.5V139.29z"/>
		<path class="st1" d="M251.25,139.29h-2.5v-1.51c-0.39,0.33-0.73,0.6-1.01,0.81c-0.28,0.21-0.62,0.41-1,0.58
			c-0.35,0.17-0.72,0.3-1.1,0.39c-0.38,0.09-0.82,0.14-1.33,0.14c-0.81,0-1.55-0.17-2.24-0.5c-0.69-0.34-1.27-0.83-1.75-1.47
			c-0.49-0.66-0.86-1.46-1.13-2.42s-0.4-2.06-0.4-3.31c0-1.3,0.17-2.43,0.5-3.38c0.34-0.95,0.8-1.78,1.39-2.49
			c0.54-0.65,1.19-1.15,1.96-1.52c0.77-0.37,1.57-0.55,2.41-0.55c0.74,0,1.39,0.08,1.94,0.25c0.55,0.16,1.13,0.42,1.74,0.76v-6.43
			h2.5V139.29z M248.75,135.68v-8.55c-0.62-0.3-1.17-0.51-1.67-0.62c-0.49-0.12-1.02-0.17-1.6-0.17c-1.28,0-2.29,0.48-3.01,1.44
			c-0.73,0.96-1.09,2.35-1.09,4.16c0,1.74,0.28,3.08,0.84,4s1.45,1.39,2.68,1.39c0.65,0,1.31-0.15,1.98-0.44
			C247.55,136.59,248.17,136.19,248.75,135.68z"/>
		<path class="st1" d="M261.3,139.64c-2.36,0-4.2-0.67-5.5-2c-1.31-1.33-1.96-3.22-1.96-5.68c0-2.42,0.63-4.34,1.9-5.77
			c1.27-1.43,2.92-2.14,4.97-2.14c0.92,0,1.73,0.13,2.44,0.4s1.33,0.68,1.86,1.25c0.53,0.57,0.94,1.26,1.22,2.08
			c0.28,0.82,0.42,1.82,0.42,3.01v1.35h-10.28c0,1.73,0.43,3.04,1.3,3.96c0.87,0.91,2.07,1.37,3.6,1.37c0.55,0,1.09-0.06,1.61-0.19
			c0.53-0.12,1-0.28,1.43-0.48c0.45-0.2,0.83-0.4,1.14-0.59c0.31-0.19,0.57-0.37,0.77-0.54h0.15v2.72
			c-0.29,0.12-0.66,0.26-1.09,0.43c-0.43,0.17-0.82,0.31-1.17,0.4c-0.49,0.13-0.93,0.23-1.32,0.31
			C262.4,139.6,261.9,139.64,261.3,139.64z M264.22,130.23c-0.02-0.67-0.1-1.25-0.24-1.74s-0.35-0.9-0.61-1.23
			c-0.29-0.37-0.67-0.65-1.12-0.85c-0.46-0.19-1.02-0.29-1.69-0.29c-0.66,0-1.23,0.1-1.69,0.3c-0.46,0.2-0.89,0.49-1.27,0.87
			c-0.37,0.39-0.66,0.82-0.85,1.29c-0.19,0.47-0.32,1.02-0.37,1.65H264.22z"/>
		<path class="st1" d="M283.56,139.63c-1.02,0-1.95-0.16-2.8-0.47c-0.85-0.31-1.58-0.79-2.19-1.43c-0.61-0.64-1.08-1.44-1.42-2.41
			s-0.5-2.11-0.5-3.42c0-1.3,0.17-2.42,0.52-3.37c0.35-0.95,0.82-1.74,1.4-2.39c0.58-0.65,1.31-1.14,2.18-1.49
			c0.87-0.35,1.81-0.52,2.81-0.52c0.81,0,1.6,0.12,2.36,0.35c0.76,0.23,1.43,0.5,2.02,0.8v2.8h-0.15c-0.18-0.15-0.4-0.32-0.68-0.52
			c-0.28-0.19-0.62-0.39-1.02-0.6c-0.35-0.18-0.75-0.33-1.22-0.46c-0.47-0.13-0.92-0.2-1.35-0.2c-1.29,0-2.33,0.49-3.11,1.47
			c-0.78,0.98-1.17,2.36-1.17,4.15c0,1.75,0.38,3.12,1.14,4.1c0.76,0.98,1.81,1.47,3.15,1.47c0.81,0,1.59-0.17,2.32-0.5
			c0.73-0.34,1.38-0.77,1.95-1.3h0.15v2.8c-0.25,0.12-0.56,0.25-0.93,0.42c-0.37,0.16-0.71,0.29-1.01,0.36
			c-0.42,0.12-0.81,0.22-1.14,0.29S284.1,139.63,283.56,139.63z"/>
		<path class="st1" d="M298.5,137.71c-0.2,0.15-0.48,0.36-0.82,0.63c-0.34,0.27-0.67,0.48-0.99,0.64c-0.44,0.23-0.87,0.41-1.28,0.53
			c-0.41,0.12-0.99,0.19-1.73,0.19c-0.61,0-1.19-0.12-1.74-0.35s-1.03-0.55-1.45-0.97c-0.4-0.41-0.72-0.91-0.96-1.51
			c-0.24-0.6-0.36-1.23-0.36-1.89c0-1.03,0.22-1.9,0.65-2.62s1.12-1.29,2.06-1.72c0.83-0.38,1.81-0.64,2.95-0.79
			c1.13-0.15,2.35-0.25,3.66-0.33v-0.48c0-0.58-0.09-1.06-0.27-1.41s-0.42-0.63-0.74-0.83c-0.32-0.2-0.71-0.34-1.17-0.4
			c-0.46-0.07-0.93-0.1-1.42-0.1c-0.58,0-1.25,0.09-2.03,0.26c-0.78,0.17-1.56,0.42-2.34,0.75h-0.15v-2.54
			c0.46-0.13,1.12-0.28,1.98-0.44c0.86-0.16,1.71-0.24,2.55-0.24c1.02,0,1.88,0.08,2.58,0.24c0.7,0.16,1.33,0.45,1.89,0.86
			c0.54,0.41,0.94,0.93,1.21,1.58c0.27,0.65,0.4,1.43,0.4,2.36v10.14h-2.48V137.71z M298.5,135.64v-4.12
			c-0.59,0.05-1.34,0.13-2.25,0.22c-0.91,0.09-1.64,0.22-2.2,0.39c-0.66,0.2-1.21,0.52-1.65,0.94s-0.65,1.01-0.65,1.76
			c0,0.85,0.24,1.49,0.72,1.93s1.18,0.65,2.1,0.65c0.79,0,1.5-0.17,2.14-0.51C297.35,136.56,297.94,136.14,298.5,135.64z"/>
		<path class="st1" d="M312.35,127.15h-0.13c-0.19-0.05-0.38-0.09-0.59-0.1c-0.21-0.01-0.46-0.02-0.75-0.02
			c-0.67,0-1.34,0.15-2,0.44c-0.66,0.29-1.29,0.73-1.89,1.3v10.53h-2.5v-14.83h2.5v2.2c0.91-0.81,1.71-1.37,2.38-1.71
			s1.33-0.5,1.97-0.5c0.26,0,0.45,0.01,0.58,0.02s0.27,0.03,0.43,0.06V127.15z"/>
		<path class="st1" d="M317.01,121.98h-2.84v-2.59h2.84V121.98z M316.83,139.29h-2.5v-14.83h2.5V139.29z"/>
		<path class="st1" d="M326.94,139.64c-2.36,0-4.2-0.67-5.5-2c-1.31-1.33-1.96-3.22-1.96-5.68c0-2.42,0.63-4.34,1.9-5.77
			c1.27-1.43,2.92-2.14,4.97-2.14c0.92,0,1.73,0.13,2.44,0.4s1.33,0.68,1.86,1.25c0.53,0.57,0.94,1.26,1.22,2.08
			c0.28,0.82,0.42,1.82,0.42,3.01v1.35h-10.28c0,1.73,0.43,3.04,1.3,3.96c0.87,0.91,2.07,1.37,3.6,1.37c0.55,0,1.09-0.06,1.61-0.19
			c0.53-0.12,1-0.28,1.43-0.48c0.45-0.2,0.83-0.4,1.14-0.59c0.31-0.19,0.57-0.37,0.77-0.54h0.15v2.72
			c-0.29,0.12-0.66,0.26-1.09,0.43c-0.43,0.17-0.82,0.31-1.17,0.4c-0.49,0.13-0.93,0.23-1.32,0.31
			C328.04,139.6,327.54,139.64,326.94,139.64z M329.86,130.23c-0.02-0.67-0.1-1.25-0.24-1.74s-0.35-0.9-0.61-1.23
			c-0.29-0.37-0.67-0.65-1.12-0.85c-0.46-0.19-1.02-0.29-1.69-0.29c-0.66,0-1.23,0.1-1.69,0.3c-0.46,0.2-0.89,0.49-1.27,0.87
			c-0.37,0.39-0.66,0.82-0.85,1.29c-0.19,0.47-0.32,1.02-0.37,1.65H329.86z"/>
		<path class="st1" d="M342.67,127.15h-0.13c-0.19-0.05-0.38-0.09-0.59-0.1c-0.21-0.01-0.46-0.02-0.75-0.02
			c-0.67,0-1.34,0.15-2,0.44c-0.66,0.29-1.29,0.73-1.89,1.3v10.53h-2.5v-14.83h2.5v2.2c0.91-0.81,1.71-1.37,2.38-1.71
			s1.33-0.5,1.97-0.5c0.26,0,0.45,0.01,0.58,0.02s0.27,0.03,0.43,0.06V127.15z"/>
	</g>
	<g>
		<path class="st1" d="M352.68,137.71c-0.2,0.15-0.48,0.36-0.82,0.63c-0.34,0.27-0.67,0.48-0.99,0.64
			c-0.44,0.23-0.87,0.41-1.28,0.53c-0.41,0.12-0.99,0.19-1.73,0.19c-0.61,0-1.19-0.12-1.74-0.35s-1.03-0.55-1.45-0.97
			c-0.4-0.41-0.72-0.91-0.96-1.51c-0.24-0.6-0.36-1.23-0.36-1.89c0-1.03,0.22-1.9,0.65-2.62s1.12-1.29,2.06-1.72
			c0.83-0.38,1.81-0.64,2.95-0.79c1.13-0.15,2.35-0.25,3.66-0.33v-0.48c0-0.58-0.09-1.06-0.27-1.41s-0.42-0.63-0.74-0.83
			c-0.32-0.2-0.71-0.34-1.17-0.4c-0.46-0.07-0.93-0.1-1.42-0.1c-0.58,0-1.25,0.09-2.03,0.26c-0.78,0.17-1.56,0.42-2.34,0.75h-0.15
			v-2.54c0.46-0.13,1.12-0.28,1.98-0.44c0.86-0.16,1.71-0.24,2.55-0.24c1.02,0,1.88,0.08,2.58,0.24c0.7,0.16,1.33,0.45,1.89,0.86
			c0.54,0.41,0.94,0.93,1.21,1.58c0.27,0.65,0.4,1.43,0.4,2.36v10.14h-2.48V137.71z M353.9,117.57c0,0.76-0.09,1.45-0.28,2.08
			c-0.19,0.62-0.45,1.15-0.8,1.57c-0.4,0.47-0.85,0.82-1.35,1.06s-1.15,0.35-1.94,0.35c-0.73,0-1.36-0.12-1.91-0.37
			c-0.54-0.24-1-0.59-1.37-1.04c-0.36-0.44-0.64-0.97-0.82-1.59c-0.19-0.62-0.28-1.31-0.28-2.06h2.15c0,1.19,0.19,2.06,0.56,2.58
			c0.37,0.53,0.93,0.79,1.67,0.79c0.7,0,1.24-0.26,1.63-0.78c0.39-0.52,0.58-1.38,0.58-2.6H353.9z M352.68,135.64v-4.12
			c-0.59,0.05-1.34,0.13-2.25,0.22c-0.91,0.09-1.64,0.22-2.2,0.39c-0.66,0.2-1.21,0.52-1.65,0.94s-0.65,1.01-0.65,1.76
			c0,0.85,0.24,1.49,0.72,1.93s1.18,0.65,2.1,0.65c0.79,0,1.5-0.17,2.14-0.51C351.52,136.56,352.12,136.14,352.68,135.64z"/>
	</g>
</g>
<g>
</g>
<g>
</g>
<g>
</g>
<g>
</g>
<g>
</g>
<g>
</g>
<g>
</g>
<g>
</g>
<g>
</g>
<g>
</g>
<g>
</g>
<g>
</g>
<g>
</g>
<g>
</g>
<g>
</g>
</svg>
