<?xml version="1.0" encoding="utf-8"?>
<!-- Generator: Adobe Illustrator 26.5.0, SVG Export Plug-In . SVG Version: 6.00 Build 0)  -->
<svg version="1.1" id="Layer_1" xmlns="http://www.w3.org/2000/svg" xmlns:xlink="http://www.w3.org/1999/xlink" x="0px" y="0px"
	 viewBox="0 0 870 204" style="enable-background:new 0 0 870 204;" xml:space="preserve">
<style type="text/css">
	.st0{fill:none;}
	.st1{fill:none;stroke:#3939FF;stroke-width:2;stroke-miterlimit:10;}
	.st2{clip-path:url(#SVGID_00000173866171148870115370000002446085196094996132_);}
	.st3{fill:none;stroke:#F3F3FF;stroke-width:2;stroke-miterlimit:10;}
</style>
<g>
	<rect x="-66.82" class="st0" width="1003.57" height="204"/>
	<path class="st1" d="M149.37,69.55v43.87c0,8.13-2.13,14.29-6.38,18.48c-4.26,4.19-10.22,6.29-17.9,6.29
		c-8.26,0-14.82-2.27-19.68-6.82c-4.86-4.54-7.3-11.17-7.3-19.87h21.02c0,2.75,0.45,4.69,1.34,5.81c0.9,1.12,2.11,1.68,3.65,1.68
		c1.28,0,2.27-0.42,2.98-1.25c0.7-0.83,1.06-2.27,1.06-4.32V69.55H149.37z"/>
	<path class="st1" d="M174.09,133.68c-5.34-3.01-9.58-7.17-12.72-12.48c-3.14-5.31-4.7-11.29-4.7-17.95s1.57-12.64,4.7-17.95
		c3.14-5.31,7.38-9.46,12.72-12.43c5.34-2.98,11.22-4.46,17.62-4.46c6.4,0,12.25,1.49,17.57,4.46c5.31,2.98,9.52,7.12,12.62,12.43
		c3.1,5.31,4.66,11.3,4.66,17.95s-1.55,12.64-4.66,17.95c-3.1,5.31-7.33,9.47-12.67,12.48c-5.34,3.01-11.18,4.51-17.52,4.51
		C185.31,138.19,179.43,136.69,174.09,133.68z M201.5,114.24c2.3-2.72,3.46-6.38,3.46-10.99c0-4.67-1.15-8.37-3.46-11.09
		c-2.3-2.72-5.57-4.08-9.79-4.08c-4.29,0-7.58,1.36-9.89,4.08c-2.3,2.72-3.46,6.42-3.46,11.09c0,4.61,1.15,8.27,3.46,10.99
		c2.3,2.72,5.6,4.08,9.89,4.08C195.93,118.32,199.2,116.96,201.5,114.24z"/>
	<path class="st1" d="M289.29,108.58c2.27,2.98,3.41,6.42,3.41,10.32c0,5.95-1.97,10.54-5.9,13.78c-3.94,3.23-9.58,4.85-16.94,4.85
		h-35.62V69.55h34.66c6.91,0,12.35,1.5,16.32,4.51c3.97,3.01,5.95,7.39,5.95,13.15c0,3.97-1.04,7.31-3.12,10.03
		c-2.08,2.72-4.85,4.53-8.3,5.42C283.83,103.63,287.02,105.6,289.29,108.58z M255.55,96.05h8.26c1.92,0,3.34-0.38,4.27-1.15
		c0.93-0.77,1.39-1.95,1.39-3.55c0-1.66-0.47-2.9-1.39-3.7c-0.93-0.8-2.35-1.2-4.27-1.2h-8.26V96.05z M269.52,119.33
		c0.93-0.73,1.39-1.93,1.39-3.6c0-3.26-1.89-4.9-5.66-4.9h-9.7v9.6h9.7C267.16,120.43,268.59,120.06,269.52,119.33z"/>
	<path class="st1" d="M306.38,132.48c-5.28-3.81-8.15-9.39-8.59-16.75h22.66c0.32,3.9,2.05,5.86,5.18,5.86
		c1.15,0,2.13-0.27,2.93-0.82c0.8-0.54,1.2-1.39,1.2-2.54c0-1.6-0.86-2.9-2.59-3.89s-4.42-2.13-8.06-3.41
		c-4.35-1.54-7.95-3.04-10.8-4.51c-2.85-1.47-5.3-3.62-7.34-6.43c-2.05-2.82-3.04-6.43-2.98-10.85c0-4.42,1.14-8.18,3.41-11.28
		c2.27-3.1,5.38-5.46,9.31-7.06c3.94-1.6,8.37-2.4,13.3-2.4c8.32,0,14.93,1.92,19.82,5.76c4.9,3.84,7.47,9.25,7.73,16.22H328.6
		c-0.06-1.92-0.54-3.3-1.44-4.13c-0.9-0.83-1.98-1.25-3.26-1.25c-0.9,0-1.63,0.3-2.21,0.91c-0.58,0.61-0.86,1.46-0.86,2.54
		c0,1.54,0.85,2.8,2.54,3.79c1.69,0.99,4.4,2.19,8.11,3.6c4.29,1.6,7.82,3.14,10.61,4.61c2.78,1.47,5.2,3.52,7.25,6.14
		c2.05,2.62,3.07,5.92,3.07,9.89c0,4.16-1.02,7.89-3.07,11.18c-2.05,3.3-5.03,5.87-8.93,7.73c-3.9,1.86-8.54,2.78-13.92,2.78
		C318.36,138.19,311.66,136.29,306.38,132.48z"/>
	<path class="st1" d="M422.78,69.55v67.97h-21.31v-26.5h-20.26v26.5H359.9V69.55h21.31v24.48h20.26V69.55H422.78z"/>
	<path class="st1" d="M447.88,133.68c-5.34-3.01-9.58-7.17-12.72-12.48c-3.14-5.31-4.7-11.29-4.7-17.95s1.57-12.64,4.7-17.95
		c3.13-5.31,7.38-9.46,12.72-12.43c5.34-2.98,11.22-4.46,17.62-4.46c6.4,0,12.25,1.49,17.57,4.46c5.31,2.98,9.52,7.12,12.62,12.43
		c3.1,5.31,4.66,11.3,4.66,17.95s-1.55,12.64-4.66,17.95c-3.11,5.31-7.33,9.47-12.67,12.48c-5.34,3.01-11.18,4.51-17.52,4.51
		C459.1,138.19,453.22,136.69,447.88,133.68z M475.29,114.24c2.3-2.72,3.46-6.38,3.46-10.99c0-4.67-1.15-8.37-3.46-11.09
		c-2.3-2.72-5.57-4.08-9.79-4.08c-4.29,0-7.58,1.36-9.89,4.08c-2.3,2.72-3.46,6.42-3.46,11.09c0,4.61,1.15,8.27,3.46,10.99
		c2.3,2.72,5.6,4.08,9.89,4.08C469.72,118.32,472.99,116.96,475.29,114.24z"/>
	<path class="st1" d="M560.63,104.54c-1.98,3.49-4.91,6.26-8.78,8.3c-3.87,2.05-8.56,3.07-14.06,3.07h-8.45v21.6h-21.31V69.55h29.76
		c8.32,0,14.7,2.11,19.15,6.34c4.45,4.22,6.67,9.89,6.67,16.99C563.61,97.17,562.62,101.06,560.63,104.54z M542.01,92.88
		c0-4.16-2.21-6.24-6.62-6.24h-6.05v12.48h6.05C539.8,99.12,542.01,97.04,542.01,92.88z"/>
	<path class="st1" d="M601.29,71.04c3.3,1.82,5.86,4.35,7.68,7.58c1.82,3.23,2.74,6.93,2.74,11.09c0,4.1-0.91,7.78-2.74,11.04
		c-1.82,3.26-4.38,5.81-7.68,7.63c-3.3,1.82-7.02,2.74-11.18,2.74c-4.16,0-7.89-0.91-11.18-2.74c-3.3-1.82-5.87-4.37-7.73-7.63
		c-1.86-3.26-2.78-6.94-2.78-11.04c0-4.16,0.93-7.86,2.78-11.09c1.86-3.23,4.43-5.76,7.73-7.58c3.3-1.82,7.02-2.74,11.18-2.74
		C594.26,68.3,597.99,69.22,601.29,71.04z M601,100.66c2.72-2.82,4.08-6.46,4.08-10.94c0-4.54-1.36-8.21-4.08-10.99
		c-2.72-2.78-6.35-4.18-10.9-4.18c-4.61,0-8.27,1.38-10.99,4.13c-2.72,2.75-4.08,6.43-4.08,11.04c0,4.48,1.38,8.13,4.13,10.94
		c2.75,2.82,6.4,4.22,10.94,4.22C594.65,104.88,598.28,103.47,601,100.66z M598.89,89.28c-0.61,0.99-1.46,1.78-2.54,2.35l4.51,7.87
		h-8.26l-3.55-7.01h-0.48v7.01h-7.68V79.34h11.52c2.24,0,4.03,0.59,5.38,1.78c1.34,1.19,2.02,2.77,2.02,4.75
		C599.8,87.15,599.49,88.29,598.89,89.28z M588.28,87.89h2.3c0.83,0,1.25-0.42,1.25-1.25c0-0.83-0.42-1.25-1.25-1.25h-2.3V87.89z"/>
	<path class="st1" d="M624.95,69.55h21.12l-11.33,28.32h-14.02L624.95,69.55z"/>
	<path class="st1" d="M673.91,103.1c4.99-5.22,7.49-10.1,7.49-14.64c0-1.54-0.34-2.72-1.01-3.55c-0.67-0.83-1.55-1.25-2.64-1.25
		c-1.28,0-2.29,0.66-3.02,1.97c-0.74,1.31-1.01,3.31-0.82,6h-20.64c0.19-5.95,1.49-10.85,3.89-14.69c2.4-3.84,5.52-6.66,9.36-8.45
		c3.84-1.79,8.06-2.69,12.67-2.69c8.19,0,14.19,1.97,18,5.9c3.81,3.94,5.71,8.98,5.71,15.12c0,6.46-2.06,12.53-6.19,18.19
		s-9.3,10.45-15.5,14.35h21.98v17.18h-49.63v-16.03C662.13,114.13,668.92,108.32,673.91,103.1z"/>
	<path class="st1" d="M710.2,126.96V109.2l28.61-40.8h22.94v40.13h6.91v18.43h-6.91v10.56h-21.5v-10.56H710.2z M741.97,92.69
		l-10.37,15.84h10.37V92.69z"/>
</g>
<g>
	<defs>
		<rect id="SVGID_1_" x="-66.78" y="102" width="1003.49" height="102"/>
	</defs>
	<clipPath id="SVGID_00000029757954618678211370000015663560859169690011_">
		<use xlink:href="#SVGID_1_"  style="overflow:visible;"/>
	</clipPath>
	<g style="clip-path:url(#SVGID_00000029757954618678211370000015663560859169690011_);">
		<rect x="-66.76" y="0" class="st0" width="1003.49" height="204"/>
		<path class="st3" d="M149.39,69.55v43.87c0,8.13-2.13,14.29-6.38,18.48c-4.26,4.19-10.22,6.29-17.9,6.29
			c-8.26,0-14.82-2.27-19.68-6.82c-4.86-4.54-7.3-11.17-7.3-19.87h21.02c0,2.75,0.45,4.69,1.34,5.81c0.9,1.12,2.11,1.68,3.65,1.68
			c1.28,0,2.27-0.42,2.98-1.25c0.7-0.83,1.06-2.27,1.06-4.32V69.55H149.39z"/>
		<path class="st3" d="M174.11,133.68c-5.34-3.01-9.58-7.17-12.72-12.48c-3.14-5.31-4.7-11.29-4.7-17.95s1.57-12.64,4.7-17.95
			c3.14-5.31,7.38-9.46,12.72-12.43c5.34-2.98,11.22-4.46,17.62-4.46c6.4,0,12.25,1.49,17.57,4.46c5.31,2.98,9.52,7.12,12.62,12.43
			c3.1,5.31,4.66,11.3,4.66,17.95s-1.55,12.64-4.66,17.95c-3.1,5.31-7.33,9.47-12.67,12.48c-5.34,3.01-11.18,4.51-17.52,4.51
			C185.33,138.19,179.46,136.69,174.11,133.68z M201.52,114.24c2.3-2.72,3.46-6.38,3.46-10.99c0-4.67-1.15-8.37-3.46-11.09
			c-2.3-2.72-5.57-4.08-9.79-4.08c-4.29,0-7.58,1.36-9.89,4.08c-2.3,2.72-3.46,6.42-3.46,11.09c0,4.61,1.15,8.27,3.46,10.99
			c2.3,2.72,5.6,4.08,9.89,4.08C195.95,118.32,199.22,116.96,201.52,114.24z"/>
		<path class="st3" d="M289.31,108.58c2.27,2.98,3.41,6.42,3.41,10.32c0,5.95-1.97,10.54-5.9,13.78c-3.94,3.23-9.58,4.85-16.94,4.85
			h-35.62V69.55h34.66c6.91,0,12.35,1.5,16.32,4.51c3.97,3.01,5.95,7.39,5.95,13.15c0,3.97-1.04,7.31-3.12,10.03
			c-2.08,2.72-4.85,4.53-8.3,5.42C283.86,103.63,287.04,105.6,289.31,108.58z M255.57,96.05h8.26c1.92,0,3.34-0.38,4.27-1.15
			c0.93-0.77,1.39-1.95,1.39-3.55c0-1.66-0.47-2.9-1.39-3.7c-0.93-0.8-2.35-1.2-4.27-1.2h-8.26V96.05z M269.54,119.33
			c0.93-0.73,1.39-1.93,1.39-3.6c0-3.26-1.89-4.9-5.66-4.9h-9.7v9.6h9.7C267.18,120.43,268.61,120.06,269.54,119.33z"/>
		<path class="st3" d="M306.4,132.48c-5.28-3.81-8.15-9.39-8.59-16.75h22.66c0.32,3.9,2.05,5.86,5.18,5.86
			c1.15,0,2.13-0.27,2.93-0.82c0.8-0.54,1.2-1.39,1.2-2.54c0-1.6-0.86-2.9-2.59-3.89s-4.42-2.13-8.06-3.41
			c-4.35-1.54-7.95-3.04-10.8-4.51c-2.85-1.47-5.3-3.62-7.34-6.43c-2.05-2.82-3.04-6.43-2.98-10.85c0-4.42,1.14-8.18,3.41-11.28
			c2.27-3.1,5.38-5.46,9.31-7.06c3.94-1.6,8.37-2.4,13.3-2.4c8.32,0,14.93,1.92,19.82,5.76c4.9,3.84,7.47,9.25,7.73,16.22h-22.94
			c-0.06-1.92-0.54-3.3-1.44-4.13c-0.9-0.83-1.98-1.25-3.26-1.25c-0.9,0-1.63,0.3-2.21,0.91c-0.58,0.61-0.86,1.46-0.86,2.54
			c0,1.54,0.85,2.8,2.54,3.79c1.69,0.99,4.4,2.19,8.11,3.6c4.29,1.6,7.82,3.14,10.61,4.61c2.78,1.47,5.2,3.52,7.25,6.14
			c2.05,2.62,3.07,5.92,3.07,9.89c0,4.16-1.02,7.89-3.07,11.18c-2.05,3.3-5.03,5.87-8.93,7.73c-3.9,1.86-8.54,2.78-13.92,2.78
			C318.38,138.19,311.68,136.29,306.4,132.48z"/>
		<path class="st3" d="M422.8,69.55v67.97h-21.31v-26.5h-20.26v26.5h-21.31V69.55h21.31v24.48h20.26V69.55H422.8z"/>
		<path class="st3" d="M447.9,133.68c-5.34-3.01-9.58-7.17-12.72-12.48c-3.14-5.31-4.7-11.29-4.7-17.95s1.57-12.64,4.7-17.95
			c3.13-5.31,7.38-9.46,12.72-12.43c5.34-2.98,11.22-4.46,17.62-4.46c6.4,0,12.25,1.49,17.57,4.46c5.31,2.98,9.52,7.12,12.62,12.43
			c3.1,5.31,4.66,11.3,4.66,17.95s-1.55,12.64-4.66,17.95c-3.11,5.31-7.33,9.47-12.67,12.48c-5.34,3.01-11.18,4.51-17.52,4.51
			C459.12,138.19,453.25,136.69,447.9,133.68z M475.31,114.24c2.3-2.72,3.46-6.38,3.46-10.99c0-4.67-1.15-8.37-3.46-11.09
			c-2.3-2.72-5.57-4.08-9.79-4.08c-4.29,0-7.58,1.36-9.89,4.08c-2.3,2.72-3.46,6.42-3.46,11.09c0,4.61,1.15,8.27,3.46,10.99
			c2.3,2.72,5.6,4.08,9.89,4.08C469.74,118.32,473.01,116.96,475.31,114.24z"/>
		<path class="st3" d="M560.65,104.54c-1.98,3.49-4.91,6.26-8.78,8.3c-3.87,2.05-8.56,3.07-14.06,3.07h-8.45v21.6h-21.31V69.55
			h29.76c8.32,0,14.7,2.11,19.15,6.34c4.45,4.22,6.67,9.89,6.67,16.99C563.63,97.17,562.64,101.06,560.65,104.54z M542.03,92.88
			c0-4.16-2.21-6.24-6.62-6.24h-6.05v12.48h6.05C539.82,99.12,542.03,97.04,542.03,92.88z"/>
		<path class="st3" d="M601.31,71.04c3.3,1.82,5.86,4.35,7.68,7.58c1.82,3.23,2.74,6.93,2.74,11.09c0,4.1-0.91,7.78-2.74,11.04
			c-1.82,3.26-4.38,5.81-7.68,7.63c-3.3,1.82-7.02,2.74-11.18,2.74c-4.16,0-7.89-0.91-11.18-2.74c-3.3-1.82-5.87-4.37-7.73-7.63
			c-1.86-3.26-2.78-6.94-2.78-11.04c0-4.16,0.93-7.86,2.78-11.09c1.86-3.23,4.43-5.76,7.73-7.58c3.3-1.82,7.02-2.74,11.18-2.74
			C594.28,68.3,598.01,69.22,601.31,71.04z M601.02,100.66c2.72-2.82,4.08-6.46,4.08-10.94c0-4.54-1.36-8.21-4.08-10.99
			c-2.72-2.78-6.35-4.18-10.9-4.18c-4.61,0-8.27,1.38-10.99,4.13c-2.72,2.75-4.08,6.43-4.08,11.04c0,4.48,1.38,8.13,4.13,10.94
			c2.75,2.82,6.4,4.22,10.94,4.22C594.67,104.88,598.3,103.47,601.02,100.66z M598.91,89.28c-0.61,0.99-1.46,1.78-2.54,2.35
			l4.51,7.87h-8.26l-3.55-7.01h-0.48v7.01h-7.68V79.34h11.52c2.24,0,4.03,0.59,5.38,1.78c1.34,1.19,2.02,2.77,2.02,4.75
			C599.82,87.15,599.52,88.29,598.91,89.28z M588.3,87.89h2.3c0.83,0,1.25-0.42,1.25-1.25c0-0.83-0.42-1.25-1.25-1.25h-2.3V87.89z"
			/>
		<path class="st3" d="M624.97,69.55h21.12l-11.33,28.32h-14.02L624.97,69.55z"/>
		<path class="st3" d="M673.93,103.1c4.99-5.22,7.49-10.1,7.49-14.64c0-1.54-0.34-2.72-1.01-3.55c-0.67-0.83-1.55-1.25-2.64-1.25
			c-1.28,0-2.29,0.66-3.02,1.97c-0.74,1.31-1.01,3.31-0.82,6h-20.64c0.19-5.95,1.49-10.85,3.89-14.69c2.4-3.84,5.52-6.66,9.36-8.45
			c3.84-1.79,8.06-2.69,12.67-2.69c8.19,0,14.19,1.97,18,5.9c3.81,3.94,5.71,8.98,5.71,15.12c0,6.46-2.06,12.53-6.19,18.19
			s-9.3,10.45-15.5,14.35h21.98v17.18h-49.63v-16.03C662.15,114.13,668.94,108.32,673.93,103.1z"/>
		<path class="st3" d="M710.22,126.96V109.2l28.61-40.8h22.94v40.13h6.91v18.43h-6.91v10.56h-21.5v-10.56H710.22z M741.99,92.69
			l-10.37,15.84h10.37V92.69z"/>
	</g>
</g>
<g>
</g>
<g>
</g>
<g>
</g>
<g>
</g>
<g>
</g>
<g>
</g>
</svg>
