<svg id="Layer_1" data-name="Layer 1" xmlns="http://www.w3.org/2000/svg" xmlns:xlink="http://www.w3.org/1999/xlink" viewBox="0 0 580 110"><defs><style>.cls-1,.cls-2,.cls-4{fill:none;}.cls-2{stroke:#3939ff;}.cls-2,.cls-4{stroke-miterlimit:10;stroke-width:2px;}.cls-3{clip-path:url(#clip-path);}.cls-4{stroke:#f3f3ff;}</style><clipPath id="clip-path"><rect class="cls-1" x="-145" y="55" width="870" height="102"/></clipPath></defs><title>ready.set</title><rect class="cls-1" x="-145" y="-47" width="870" height="204"/><path class="cls-2" d="M60.75,90.52,48,66.14h-.1V90.52H26.57v-68H58.25a31.29,31.29,0,0,1,14.11,2.93,20.33,20.33,0,0,1,8.78,8,22.25,22.25,0,0,1,2.93,11.38,20.22,20.22,0,0,1-3.79,12.1,20.81,20.81,0,0,1-10.9,7.58l14.78,26H60.75ZM47.89,51.93h8.45A6.67,6.67,0,0,0,61,50.54a5.63,5.63,0,0,0,1.54-4.37A5.62,5.62,0,0,0,60.91,42a6.32,6.32,0,0,0-4.56-1.54H47.9V51.93Z"/><path class="cls-2" d="M112.21,39.54v8.35h21.12v16H112.21v9.6h24v17H90.9v-68h45.31v17Z"/><path class="cls-2" d="M187.86,80.25H165.2l-3.36,10.27H139.47l24.86-68h24.58l24.77,68H191.22Zm-5.19-16-6.14-18.91-6.14,18.91Z"/><path class="cls-2" d="M265.47,26.87a30.36,30.36,0,0,1,12.34,12,35,35,0,0,1,4.32,17.47,35.35,35.35,0,0,1-4.32,17.47,31.12,31.12,0,0,1-12.34,12.24,37.7,37.7,0,0,1-18.67,4.46H218.48v-68H246.8A38.76,38.76,0,0,1,265.47,26.87ZM256.3,67.58q4.23-3.93,4.22-11.23T256.3,45.12q-4.23-3.93-11.42-3.94h-5.09V71.52h5.09Q252.08,71.51,256.3,67.58Z"/><path class="cls-2" d="M355.09,22.55,330.71,69.88V90.52H309.4V69.88L285,22.55H309.4l10.85,24.1,10.85-24.1Z"/><path class="cls-2" d="M361.52,88.31a9.57,9.57,0,0,1-3.36-7.49,9.82,9.82,0,0,1,3.36-7.63,14.57,14.57,0,0,1,17.76,0,9.83,9.83,0,0,1,3.36,7.63,9.59,9.59,0,0,1-3.36,7.49,14.72,14.72,0,0,1-17.76,0Z"/><path class="cls-2" d="M397,85.48q-7.92-5.72-8.59-16.75h22.66c.32,3.9,2.05,5.86,5.18,5.86a5.05,5.05,0,0,0,2.93-.82,2.85,2.85,0,0,0,1.2-2.54,4.41,4.41,0,0,0-2.59-3.89,52.23,52.23,0,0,0-8.06-3.41,88.3,88.3,0,0,1-10.8-4.51A20.87,20.87,0,0,1,391.58,53q-3.07-4.23-3-10.85A18.57,18.57,0,0,1,392,30.86a21.1,21.1,0,0,1,9.31-7.06,35.06,35.06,0,0,1,13.3-2.4q12.48,0,19.82,5.76t7.73,16.22H419.23a5.67,5.67,0,0,0-1.44-4.13A4.65,4.65,0,0,0,414.53,38a2.9,2.9,0,0,0-2.21.91,3.54,3.54,0,0,0-.86,2.54A4.36,4.36,0,0,0,414,45.24a58.57,58.57,0,0,0,8.11,3.6,92.51,92.51,0,0,1,10.61,4.61A22.55,22.55,0,0,1,440,59.59,15.57,15.57,0,0,1,443,69.48a20.15,20.15,0,0,1-12,18.91,32.07,32.07,0,0,1-13.92,2.78Q404.9,91.2,397,85.48Z"/><path class="cls-2" d="M471.82,39.54v8.35h21.12v16H471.82v9.6h24v17H450.51v-68h45.31v17Z"/><path class="cls-2" d="M557.26,22.55v16.9h-18V90.52H517.9V39.45H500V22.55Z"/><g class="cls-3"><rect class="cls-1" x="-145" y="-47" width="870" height="204"/><path class="cls-4" d="M60.75,90.52,48,66.14h-.1V90.52H26.57v-68H58.25a31.29,31.29,0,0,1,14.11,2.93,20.33,20.33,0,0,1,8.78,8,22.25,22.25,0,0,1,2.93,11.38,20.22,20.22,0,0,1-3.79,12.1,20.81,20.81,0,0,1-10.9,7.58l14.78,26H60.75ZM47.89,51.93h8.45A6.67,6.67,0,0,0,61,50.54a5.63,5.63,0,0,0,1.54-4.37A5.62,5.62,0,0,0,60.91,42a6.32,6.32,0,0,0-4.56-1.54H47.9V51.93Z"/><path class="cls-4" d="M112.21,39.54v8.35h21.12v16H112.21v9.6h24v17H90.9v-68h45.31v17Z"/><path class="cls-4" d="M187.86,80.25H165.2l-3.36,10.27H139.47l24.86-68h24.58l24.77,68H191.22Zm-5.19-16-6.14-18.91-6.14,18.91Z"/><path class="cls-4" d="M265.47,26.87a30.36,30.36,0,0,1,12.34,12,35,35,0,0,1,4.32,17.47,35.35,35.35,0,0,1-4.32,17.47,31.12,31.12,0,0,1-12.34,12.24,37.7,37.7,0,0,1-18.67,4.46H218.48v-68H246.8A38.76,38.76,0,0,1,265.47,26.87ZM256.3,67.58q4.23-3.93,4.22-11.23T256.3,45.12q-4.23-3.93-11.42-3.94h-5.09V71.52h5.09Q252.08,71.51,256.3,67.58Z"/><path class="cls-4" d="M355.09,22.55,330.71,69.88V90.52H309.4V69.88L285,22.55H309.4l10.85,24.1,10.85-24.1Z"/><path class="cls-4" d="M361.52,88.31a9.57,9.57,0,0,1-3.36-7.49,9.82,9.82,0,0,1,3.36-7.63,14.57,14.57,0,0,1,17.76,0,9.83,9.83,0,0,1,3.36,7.63,9.59,9.59,0,0,1-3.36,7.49,14.72,14.72,0,0,1-17.76,0Z"/><path class="cls-4" d="M397,85.48q-7.92-5.72-8.59-16.75h22.66c.32,3.9,2.05,5.86,5.18,5.86a5.05,5.05,0,0,0,2.93-.82,2.85,2.85,0,0,0,1.2-2.54,4.41,4.41,0,0,0-2.59-3.89,52.23,52.23,0,0,0-8.06-3.41,88.3,88.3,0,0,1-10.8-4.51A20.87,20.87,0,0,1,391.58,53q-3.07-4.23-3-10.85A18.57,18.57,0,0,1,392,30.86a21.1,21.1,0,0,1,9.31-7.06,35.06,35.06,0,0,1,13.3-2.4q12.48,0,19.82,5.76t7.73,16.22H419.23a5.67,5.67,0,0,0-1.44-4.13A4.65,4.65,0,0,0,414.53,38a2.9,2.9,0,0,0-2.21.91,3.54,3.54,0,0,0-.86,2.54A4.36,4.36,0,0,0,414,45.24a58.57,58.57,0,0,0,8.11,3.6,92.51,92.51,0,0,1,10.61,4.61A22.55,22.55,0,0,1,440,59.59,15.57,15.57,0,0,1,443,69.48a20.15,20.15,0,0,1-12,18.91,32.07,32.07,0,0,1-13.92,2.78Q404.9,91.2,397,85.48Z"/><path class="cls-4" d="M471.82,39.54v8.35h21.12v16H471.82v9.6h24v17H450.51v-68h45.31v17Z"/><path class="cls-4" d="M557.26,22.55v16.9h-18V90.52H517.9V39.45H500V22.55Z"/></g></svg>