<?xml version="1.0" encoding="utf-8"?>
<!-- Generator: Adobe Illustrator 26.5.0, SVG Export Plug-In . SVG Version: 6.00 Build 0)  -->
<svg version="1.1" id="Layer_1" xmlns="http://www.w3.org/2000/svg" xmlns:xlink="http://www.w3.org/1999/xlink" x="0px" y="0px"
	 viewBox="0 0 30 18" style="enable-background:new 0 0 30 18;" xml:space="preserve">
<style type="text/css">
	.st0{clip-path:url(#SVGID_00000016775584976469100060000017977621057353441672_);fill:#FFFFFF;}
	.st1{clip-path:url(#SVGID_00000016775584976469100060000017977621057353441672_);fill:#BD0034;}
	.st2{clip-path:url(#SVGID_00000016775584976469100060000017977621057353441672_);fill:#1A237B;}
</style>
<g id="UNITED_KINGDOM_2_">
	<g>
		<g>
			<defs>
				<rect id="SVGID_1_" x="1.29" y="1" width="27.42" height="16"/>
			</defs>
			<clipPath id="SVGID_00000010991764302645633740000010349886619584103572_">
				<use xlink:href="#SVGID_1_"  style="overflow:visible;"/>
			</clipPath>
			
				<rect x="1.29" y="1" style="clip-path:url(#SVGID_00000010991764302645633740000010349886619584103572_);fill:#FFFFFF;" width="27.42" height="16"/>
			<polygon style="clip-path:url(#SVGID_00000010991764302645633740000010349886619584103572_);fill:#BD0034;" points="19.65,6.79 
				28.71,1.71 28.71,1 28.09,1 17.76,6.79 			"/>
			<polygon style="clip-path:url(#SVGID_00000010991764302645633740000010349886619584103572_);fill:#BD0034;" points="19.22,11.54 
				28.71,16.85 28.71,15.78 21.12,11.54 			"/>
			<polygon style="clip-path:url(#SVGID_00000010991764302645633740000010349886619584103572_);fill:#BD0034;" points="1.29,2.22 
				9.41,6.79 11.3,6.79 1.29,1.16 			"/>
			<polygon style="clip-path:url(#SVGID_00000010991764302645633740000010349886619584103572_);fill:#BD0034;" points="10.87,11.54 
				1.29,16.91 1.29,17 3.02,17 12.77,11.54 			"/>
			<polygon style="clip-path:url(#SVGID_00000010991764302645633740000010349886619584103572_);fill:#1A237B;" points="26.83,1 
				17.23,1 17.23,6.38 			"/>
			<polygon style="clip-path:url(#SVGID_00000010991764302645633740000010349886619584103572_);fill:#1A237B;" points="12.99,1 
				3.43,1 12.99,6.38 			"/>
			<polygon style="clip-path:url(#SVGID_00000010991764302645633740000010349886619584103572_);fill:#1A237B;" points="28.71,6.79 
				28.71,3.12 22.2,6.79 			"/>
			<polygon style="clip-path:url(#SVGID_00000010991764302645633740000010349886619584103572_);fill:#1A237B;" points="28.71,15.17 
				28.71,11.54 22.2,11.54 			"/>
			<polygon style="clip-path:url(#SVGID_00000010991764302645633740000010349886619584103572_);fill:#1A237B;" points="3.97,17 
				12.99,17 12.99,11.94 			"/>
			<polygon style="clip-path:url(#SVGID_00000010991764302645633740000010349886619584103572_);fill:#1A237B;" points="17.23,17 
				26.28,17 17.23,11.94 			"/>
			<polygon style="clip-path:url(#SVGID_00000010991764302645633740000010349886619584103572_);fill:#1A237B;" points="1.29,11.54 
				1.29,15.33 8.03,11.54 			"/>
			<polygon style="clip-path:url(#SVGID_00000010991764302645633740000010349886619584103572_);fill:#1A237B;" points="1.29,6.79 
				8.03,6.79 1.29,2.99 			"/>
			<polygon style="clip-path:url(#SVGID_00000010991764302645633740000010349886619584103572_);fill:#BD0034;" points="13.84,1 
				13.84,7.74 1.29,7.74 1.29,10.59 13.84,10.59 13.84,17 16.39,17 16.39,10.59 28.71,10.59 28.71,7.74 16.39,7.74 16.39,1 			"/>
		</g>
	</g>
</g>
<g>
</g>
<g>
</g>
<g>
</g>
<g>
</g>
<g>
</g>
<g>
</g>
<g>
</g>
<g>
</g>
<g>
</g>
<g>
</g>
<g>
</g>
<g>
</g>
<g>
</g>
<g>
</g>
<g>
</g>
</svg>
